<?xml version="1.0" encoding="UTF-8" standalone="no"?>
<svg
   version="1.1"
   viewBox="0 0 136.27884 172.24132"
   id="svg262"
   width="136.27884"
   height="172.24132"
   xmlns="http://www.w3.org/2000/svg"
   xmlns:svg="http://www.w3.org/2000/svg">
  <defs
     id="defs262">
    <filter
       style="color-interpolation-filters:sRGB"
       id="filter1844"
       x="-0.01721143"
       y="-0.013480519"
       width="1.0344228"
       height="1.0269991">
      <feSpecularLighting
         in="SourceAlpha"
         surfaceScale="1"
         specularConstant="2"
         specularExponent="18.5"
         id="feSpecularLighting1843">
        <feDistantLight
           elevation="30"
           azimuth="225"
           id="feDistantLight1843" />
      </feSpecularLighting>
      <feComposite
         result="result0"
         operator="atop"
         in2="SourceGraphic"
         id="feComposite1843" />
      <feMorphology
         radius="2"
         result="result1"
         in="SourceAlpha"
         operator="dilate"
         id="feMorphology1843" />
      <feComposite
         in="result0"
         in2="result1"
         id="feComposite1844" />
    </filter>
  </defs>
  <g
     id="g262"
     transform="translate(-457.79494,-354.94138)">
    <g
       id="g1355"
       style="filter:url(#filter1844)">
      <path
         fill="#ffffff"
         d="m 475.54234,404.18354 -0.23095,110.46612 c 0,0.81221 -0.21151,0.67804 -0.21151,0.67804 l -15.03665,4.61894 c 0,0 -7.9e-4,0.0578 -7.9e-4,-0.0615 l 0.25117,-162.4703 c 0.003,-0.17327 0.19441,-0.27258 0.33313,-0.17291 l 42.59284,30.75766 c 0.12903,0.0923 0.11756,0.29125 -0.0212,0.36745 l -27.56504,15.6274 c -0.0681,0.0375 -0.11065,0.11007 -0.11104,0.18912 z"
         id="path179"
         style="fill:#3366cc;fill-opacity:0.862745;stroke:#000000;stroke-width:0.535;stroke-dasharray:none;stroke-opacity:1" />
      <ellipse
         fill="#ffffff"
         cx="488.60834"
         cy="445.29462"
         id="circle182"
         style="fill:#ffbb25;fill-opacity:0.92549;stroke:#000000;stroke-width:0.534539;stroke-opacity:0.728947"
         rx="5.5468507"
         ry="5.6684442" />
      <path
         fill="#ffffff"
         d="m 548.4804,510.98738 -31.46555,-9.015 c -0.11229,-0.0322 -0.21151,-0.0968 -0.21151,-0.21614 v -43.0123 c -0.001,-0.0976 0.46718,-0.38676 0.55903,-0.41358 l 31.45008,-8.16613 c 0.0646,0.0273 0.14048,-0.12472 0.13848,0.0201 l 0.11864,60.68132 z"
         id="path183"
         style="fill:#5185d5;fill-opacity:1;fill-rule:nonzero;stroke:#000000;stroke-width:0.534539;stroke-linecap:round;stroke-linejoin:round;stroke-opacity:0.981579" />
      <g
         id="g1"
         style="fill:#ffbb25;fill-opacity:0.92549;fill-rule:nonzero;stroke:#000000;stroke-linecap:round;stroke-linejoin:round;stroke-opacity:0.997368">
        <path
           fill="#ffffff"
           d="m 591.36093,524.82753 -31.8861,-10.62849 c -0.48306,-0.0523 -0.28553,-0.45601 -0.28553,-0.33391 l -0.0205,-66.1834 c -3e-4,-0.13019 0.0838,-0.24483 0.20622,-0.28099 l 32.17978,-8.70159 c 0.58855,1.56872 -0.0404,0.0865 -0.0408,0.28099 l -0.13652,85.93532 c 0,0 0.14117,-0.0879 -0.0165,-0.088 z"
           id="path182"
           style="fill:#ffbb25;fill-opacity:0.92549;fill-rule:nonzero;stroke:#000000;stroke-width:0.534539;stroke-linecap:round;stroke-linejoin:round;stroke-opacity:0.997368" />
      </g>
      <path
         fill="#ffffff"
         d="m 516.80334,449.43795 v -36.91784 a 0.22737329,0.23235759 0 0 1 0.0952,-0.18912 l 31.89571,-23.05204 a 0.22737329,0.23235759 0 0 1 0.35957,0.18913 v 50.21626 a 0.22737329,0.23235759 0 0 1 -0.16392,0.22155 l -31.89571,9.75361 a 0.22737329,0.23235759 0 0 1 -0.29083,-0.22155 z"
         id="path181"
         style="fill:#ff7f2a;fill-opacity:1;fill-rule:nonzero;stroke:#000000;stroke-width:0.534539;stroke-linecap:round;stroke-linejoin:round;stroke-opacity:0.997368" />
      <g
         id="g729"
         style="fill:#44aa00">
        <path
           d="m 591.36592,426.95871 -31.91687,9.75902 a 0.21679779,0.22155026 0 0 1 -0.28025,-0.21075 v -54.59322 a 0.21679779,0.22155026 0 0 1 0.0899,-0.17832 l 31.91687,-23.06825 a 0.21679779,0.22155026 0 0 1 0.3437,0.17832 v 67.89705 a 0.21679779,0.22155026 0 0 1 -0.15334,0.21615 z"
           id="path180"
           style="mix-blend-mode:hue;fill:#44aa00;fill-opacity:0.839216;fill-rule:nonzero;stroke:#000000;stroke-width:0.534539;stroke-linecap:round;stroke-linejoin:round;stroke-opacity:0.997368"
           fill="#ffffff" />
      </g>
    </g>
  </g>
</svg>
