<?xml version="1.0" encoding="UTF-8" standalone="no"?>
<!DOCTYPE svg PUBLIC "-//W3C//DTD SVG 1.1//EN" "http://www.w3.org/Graphics/SVG/1.1/DTD/svg11.dtd">
<svg xmlns="http://www.w3.org/2000/svg" version="1.1" viewBox="0.00 0.00 256.00 256.00">
<g stroke-width="2.00" fill="none" stroke-linecap="butt">
<path stroke="#d0d0d0" stroke-opacity="0.541" vector-effect="non-scaling-stroke" d="
  M 237.22 73.56
  Q 232.89 67.65 228.01 62.25
  Q 206.59 38.55 183.28 17.97
  Q 178.35 13.62 172.92 9.83
  Q 170.24 7.97 167.01 7.97
  Q 111.31 7.95 60.70 7.96
  A 0.74 0.73 -0.8 0 0 59.97 8.70
  L 60.02 19.70"
/>
<path stroke="#d62e2e" stroke-opacity="0.541" vector-effect="non-scaling-stroke" d="
  M 60.02 19.70
  L 52.70 19.97"
/>
<path stroke="#bababa" stroke-opacity="0.604" vector-effect="non-scaling-stroke" d="
  M 237.22 73.56
  Q 238.48 75.74 238.03 78.77"
/>
<path stroke="#ababab" stroke-opacity="0.659" vector-effect="non-scaling-stroke" d="
  M 238.03 78.77
  L 237.96 127.98"
/>
<path stroke="#ececec" vector-effect="non-scaling-stroke" d="
  M 237.96 127.98
  Q 228.92 121.58 221.81 117.63
  Q 201.54 106.37 189.15 98.80
  C 176.17 90.87 164.03 87.73 148.83 86.82"
/>
<path stroke="#f07171" vector-effect="non-scaling-stroke" d="
  M 148.83 86.82
  L 147.00 82.92"
/>
<path stroke="#e1e1e1" vector-effect="non-scaling-stroke" d="
  M 147.00 82.92
  Q 156.32 82.50 165.05 80.18"
/>
<path stroke="#a27171" vector-effect="non-scaling-stroke" d="
  M 165.05 80.18
  L 173.38 80.12
  A 0.64 0.63 -90.0 0 0 174.01 79.48
  L 174.02 62.70"
/>
<path stroke="#ab7171" vector-effect="non-scaling-stroke" d="
  M 174.02 62.70
  L 174.02 21.04
  A 0.97 0.97 0.0 0 0 173.07 20.07
  L 169.01 19.97"
/>
<path stroke="#ce7171" vector-effect="non-scaling-stroke" d="
  M 169.01 19.97
  L 116.04 19.98"
/>
<path stroke="#e17e7f" vector-effect="non-scaling-stroke" d="
  M 116.04 19.98
  L 71.01 19.99"
/>
<path stroke="#e58a8a" vector-effect="non-scaling-stroke" d="
  M 71.01 19.99
  L 60.02 19.70"
/>
<path stroke="#e42727" vector-effect="non-scaling-stroke" d="
  M 71.01 19.99
  Q 69.33 23.19 73.63 24.74
  C 77.73 26.23 86.86 24.77 87.29 31.96"
/>
<path stroke="#f29191" vector-effect="non-scaling-stroke" d="
  M 87.29 31.96
  L 79.86 32.53
  A 0.58 0.57 88.4 0 0 79.33 33.10
  L 79.16 42.52"
/>
<path stroke="#dd1e1e" vector-effect="non-scaling-stroke" d="
  M 79.16 42.52
  Q 78.55 40.25 77.50 40.37
  Q 74.66 40.69 74.37 43.57"
/>
<path stroke="#f29191" vector-effect="non-scaling-stroke" d="
  M 74.37 43.57
  Q 74.37 34.92 66.55 32.44"
/>
<path stroke="#ef3939" vector-effect="non-scaling-stroke" d="
  M 66.55 32.44
  L 64.02 26.53
  A 0.74 0.72 78.3 0 0 63.35 26.08
  Q 43.54 25.98 23.50 25.62
  Q 18.99 25.54 12.59 26.21
  A 0.57 0.55 -2.9 0 0 12.08 26.76
  L 12.08 38.86
  A 0.66 0.65 3.5 0 0 12.66 39.51
  Q 28.88 41.53 45.12 41.00
  Q 46.57 40.95 51.17 41.46"
/>
<path stroke="#f29191" vector-effect="non-scaling-stroke" d="
  M 51.17 41.46
  L 51.15 51.21"
/>
<path stroke="#dd1e1e" vector-effect="non-scaling-stroke" d="
  M 51.15 51.21
  L 12.48 48.54
  A 0.48 0.48 0.0 0 0 11.97 49.01
  L 11.91 56.22"
/>
<path stroke="#c71919" vector-effect="non-scaling-stroke" d="
  M 11.91 56.22
  L 6.04 55.21"
/>
<path stroke="#d62e2e" stroke-opacity="0.541" vector-effect="non-scaling-stroke" d="
  M 6.04 55.21
  L 5.95 21.72"
/>
<path stroke="#ababab" stroke-opacity="0.659" vector-effect="non-scaling-stroke" d="
  M 59.93 84.71
  Q 60.05 85.16 59.98 85.85"
/>
<path stroke="#bbbbbc" stroke-opacity="0.659" vector-effect="non-scaling-stroke" d="
  M 59.98 85.85
  L 60.00 242.45"
/>
<path stroke="#bbbbbc" stroke-opacity="0.659" vector-effect="non-scaling-stroke" d="
  M 234.30 244.00
  L 237.56 243.92
  A 0.46 0.46 0.0 0 0 238.01 243.46
  L 237.96 127.98"
/>
<path stroke="#980000" vector-effect="non-scaling-stroke" d="
  M 169.01 19.97
  Q 167.22 24.10 168.04 28.21
  A 3.40 3.11 42.4 0 1 168.11 28.97
  L 167.93 45.67"
/>
<path stroke="#b00000" vector-effect="non-scaling-stroke" d="
  M 167.93 45.67
  Q 149.38 56.10 129.10 61.90
  Q 123.78 63.42 118.43 64.88
  A 0.69 0.67 83.3 0 0 117.93 65.53
  L 117.89 67.60"
/>
<path stroke="#dc7878" vector-effect="non-scaling-stroke" d="
  M 117.89 67.60
  L 117.91 54.16
  A 0.51 0.50 -90.0 0 1 118.40 53.66
  L 128.30 53.33"
/>
<path stroke="#c60505" vector-effect="non-scaling-stroke" d="
  M 128.30 53.33
  Q 134.15 48.84 137.21 46.09
  C 142.98 40.90 144.80 34.44 145.33 26.75
  A 0.48 0.47 3.5 0 0 144.87 26.24
  L 116.29 25.48"
/>
<path stroke="#a27171" vector-effect="non-scaling-stroke" d="
  M 165.05 80.18
  L 143.65 80.13"
/>
<path stroke="#b10000" vector-effect="non-scaling-stroke" d="
  M 143.65 80.13
  L 137.42 80.13"
/>
<path stroke="#a27171" vector-effect="non-scaling-stroke" d="
  M 137.42 80.13
  L 74.74 80.02"
/>
<path stroke="#6c0000" vector-effect="non-scaling-stroke" d="
  M 74.74 80.02
  L 102.23 74.01"
/>
<path stroke="#a5a6a5" stroke-opacity="0.749" vector-effect="non-scaling-stroke" d="
  M 234.30 244.00
  Q 147.76 244.08 61.25 243.95
  Q 59.83 243.94 60.00 242.45"
/>
<path stroke="#f07171" vector-effect="non-scaling-stroke" d="
  M 143.65 80.13
  Q 145.98 81.39 147.00 82.92"
/>
<path stroke="#fb7c7c" vector-effect="non-scaling-stroke" d="
  M 148.83 86.82
  Q 149.34 91.00 148.50 95.73
  A 0.12 0.12 0.0 0 1 148.27 95.72
  Q 147.56 88.61 143.02 82.35
  A 2.41 1.77 58.0 0 0 140.51 81.35
  Q 139.68 81.73 139.29 83.83
  C 137.24 95.00 139.07 107.01 142.22 118.46
  A 0.29 0.29 0.0 0 0 142.78 118.46
  L 147.52 100.43
  A 0.04 0.04 0.0 0 1 147.59 100.44
  Q 147.28 114.61 145.03 126.22
  A 2.40 2.35 41.2 0 0 145.13 127.50
  Q 151.00 143.36 159.55 153.27
  Q 164.70 159.23 175.89 165.93
  A 2.11 2.09 -34.4 0 0 177.31 166.19
  Q 191.49 163.73 206.68 164.82
  C 212.55 165.25 220.64 167.03 219.92 174.43
  A 0.30 0.30 0.0 0 1 219.39 174.60
  C 216.73 171.40 211.50 169.94 207.48 169.59
  Q 196.70 168.63 184.55 170.14
  A 0.25 0.25 0.0 0 0 184.48 170.61
  C 193.77 174.67 202.71 178.33 212.50 179.46
  Q 216.37 179.91 218.86 177.40
  A 0.26 0.25 71.8 0 1 219.29 177.62
  Q 218.51 182.82 214.02 183.52
  Q 208.82 184.32 201.94 182.84
  Q 187.15 179.65 173.60 172.01
  A 2.59 2.58 55.2 0 0 171.96 171.71
  Q 144.76 175.87 119.05 183.98
  A 1.97 1.92 4.8 0 0 117.92 184.91
  C 113.22 193.60 95.01 226.86 82.17 220.09
  Q 80.17 219.03 80.03 219.00
  C 76.72 218.08 76.39 214.72 77.59 212.07
  C 82.45 201.39 95.09 193.32 105.75 187.85
  A 0.07 0.07 0.0 0 1 105.84 187.96
  Q 102.41 191.63 98.03 195.52
  Q 88.20 204.26 83.27 213.53
  Q 82.15 215.62 81.98 217.56
  A 0.56 0.56 0.0 0 0 82.70 218.15
  C 86.98 216.89 90.82 213.47 94.02 209.77
  Q 100.71 202.02 105.30 194.54
  Q 123.81 164.41 137.85 131.36
  A 2.95 2.93 -41.3 0 0 137.98 129.46
  Q 134.53 116.69 132.60 105.09
  Q 131.06 95.92 132.11 86.76"
/>
<path stroke="#ce0e0e" vector-effect="non-scaling-stroke" d="
  M 116.04 19.98
  L 116.29 25.48"
/>
<path stroke="#d91213" vector-effect="non-scaling-stroke" d="
  M 116.29 25.48
  Q 111.71 25.59 107.14 25.63
  C 110.37 25.71 113.45 25.84 116.64 26.33
  A 1.12 1.09 -12.9 0 1 117.38 26.78
  L 121.28 32.16"
/>
<path stroke="#ee8686" vector-effect="non-scaling-stroke" d="
  M 121.28 32.16
  L 110.63 32.15
  A 0.49 0.48 -89.4 0 0 110.14 32.64
  L 110.16 56.21"
/>
<path stroke="#c30e0e" vector-effect="non-scaling-stroke" d="
  M 110.16 56.21
  Q 107.91 55.57 105.41 55.70"
/>
<path stroke="#ee8686" vector-effect="non-scaling-stroke" d="
  M 105.41 55.70
  C 107.37 45.82 105.50 35.50 94.53 32.42
  Q 92.63 31.88 87.29 31.96"
/>
<path stroke="#6c0000" vector-effect="non-scaling-stroke" d="
  M 174.02 62.70
  L 167.89 63.99"
/>
<path stroke="#8d0000" vector-effect="non-scaling-stroke" d="
  M 167.89 63.99
  L 167.93 45.67"
/>
<path stroke="#d17878" vector-effect="non-scaling-stroke" d="
  M 105.41 55.70
  Q 103.21 65.28 94.01 67.53
  Q 87.48 69.13 79.88 67.89
  A 0.64 0.64 0.0 0 1 79.34 67.28
  L 79.16 63.23"
/>
<path stroke="#e77d7d" vector-effect="non-scaling-stroke" d="
  M 79.16 63.23
  L 79.16 42.52"
/>
<path stroke="#e77d7d" vector-effect="non-scaling-stroke" d="
  M 74.37 43.57
  Q 73.44 53.66 63.14 54.78
  Q 61.31 54.98 59.36 55.09
  A 0.53 0.53 0.0 0 0 58.86 55.62
  L 58.86 63.31"
/>
<path stroke="#d17878" vector-effect="non-scaling-stroke" d="
  M 58.86 63.31
  L 58.84 67.44
  A 0.48 0.47 85.0 0 1 58.45 67.91
  Q 53.59 68.74 51.03 67.04"
/>
<path stroke="#dc7878" vector-effect="non-scaling-stroke" d="
  M 51.03 67.04
  L 51.12 60.22"
/>
<path stroke="#e77d7d" vector-effect="non-scaling-stroke" d="
  M 51.12 60.22
  L 51.15 51.21"
/>
<path stroke="#840000" vector-effect="non-scaling-stroke" d="
  M 167.89 63.99
  L 167.79 73.26
  A 0.53 0.52 -0.0 0 1 167.27 73.77
  L 102.23 74.01"
/>
<path stroke="#8d0000" vector-effect="non-scaling-stroke" d="
  M 102.23 74.01
  L 12.52 74.10
  A 0.45 0.45 0.0 0 1 12.08 73.73
  L 12.03 73.43
  A 1.02 1.01 3.4 0 0 11.32 72.64
  L 6.03 71.03"
/>
<path stroke="#bb0505" vector-effect="non-scaling-stroke" d="
  M 11.91 56.22
  L 11.98 57.55"
/>
<path stroke="#b00000" vector-effect="non-scaling-stroke" d="
  M 11.98 57.55
  L 12.18 64.35
  A 0.56 0.56 0.0 0 0 12.71 64.90
  L 51.03 67.04"
/>
<path stroke="#f99898" vector-effect="non-scaling-stroke" d="
  M 66.55 32.44
  Q 59.16 31.43 51.83 32.53
  A 0.62 0.62 0.0 0 0 51.31 33.13
  L 51.17 41.46"
/>
<path stroke="#c60505" vector-effect="non-scaling-stroke" d="
  M 51.12 60.22
  Q 47.05 59.35 45.10 59.28
  Q 28.49 58.70 11.98 57.55"
/>
<path stroke="#990000" stroke-opacity="0.541" vector-effect="non-scaling-stroke" d="
  M 6.04 55.21
  L 6.03 71.03"
/>
<path stroke="#6b0000" stroke-opacity="0.541" vector-effect="non-scaling-stroke" d="
  M 6.03 71.03
  L 6.05 79.32
  A 0.64 0.63 3.6 0 0 6.61 79.95
  L 7.44 80.05"
/>
<path stroke="#bb0505" vector-effect="non-scaling-stroke" d="
  M 79.16 63.23
  Q 68.98 62.56 58.86 63.31"
/>
<path stroke="#ab7171" vector-effect="non-scaling-stroke" d="
  M 74.74 80.02
  L 59.97 80.14"
/>
<path stroke="#4e0000" stroke-opacity="0.749" vector-effect="non-scaling-stroke" d="
  M 59.97 80.14
  L 56.21 80.05"
/>
<path stroke="#580000" stroke-opacity="0.659" vector-effect="non-scaling-stroke" d="
  M 56.21 80.05
  L 54.99 80.06"
/>
<path stroke="#600000" stroke-opacity="0.604" vector-effect="non-scaling-stroke" d="
  M 54.99 80.06
  L 7.44 80.05"
/>
<path stroke="#979797" stroke-opacity="0.749" vector-effect="non-scaling-stroke" d="
  M 59.97 80.14
  L 59.93 84.71"
/>
<path stroke="#f07171" vector-effect="non-scaling-stroke" d="
  M 137.42 80.13
  Q 132.44 81.96 132.11 86.76"
/>
<path stroke="#ececec" vector-effect="non-scaling-stroke" d="
  M 132.11 86.76
  Q 122.89 86.17 117.16 86.18
  Q 88.64 86.24 59.98 85.85"
/>
<path stroke="#d17878" vector-effect="non-scaling-stroke" d="
  M 117.89 67.60
  L 110.61 67.96
  A 0.44 0.43 88.8 0 1 110.16 67.52
  L 110.16 56.21"
/>
<path stroke="#e77d7d" vector-effect="non-scaling-stroke" d="
  M 128.30 53.33
  L 128.35 47.76
  A 0.61 0.60 90.0 0 0 127.75 47.15
  L 118.17 47.15
  A 0.31 0.31 0.0 0 1 117.86 46.84
  L 117.86 38.92
  A 0.31 0.30 0.0 0 1 118.17 38.62
  L 128.41 38.62
  A 0.44 0.44 0.0 0 0 128.85 38.18
  L 128.85 32.66
  A 0.49 0.49 0.0 0 0 128.36 32.17
  L 121.28 32.16"
/>
<path stroke="#898c8a" vector-effect="non-scaling-stroke" d="
  M 192.71 58.00
  Q 196.47 61.86 202.97 63.16
  C 209.90 64.55 214.98 66.22 219.85 63.25
  A 0.31 0.30 -49.9 0 0 219.81 62.70
  L 213.21 60.13"
/>
<path stroke="#ececec" vector-effect="non-scaling-stroke" d="
  M 213.21 60.13
  L 211.81 57.86"
/>
<path stroke="#efe9e9" vector-effect="non-scaling-stroke" d="
  M 211.81 57.86
  Q 200.61 44.55 188.07 32.43"
/>
<path stroke="#ececec" vector-effect="non-scaling-stroke" d="
  M 188.07 32.43
  Q 187.54 31.88 186.85 31.53
  A 0.27 0.27 0.0 0 0 186.47 31.84
  Q 189.46 44.22 188.25 57.01
  A 0.58 0.58 0.0 0 0 188.78 57.64
  L 192.71 58.00"
/>
<path stroke="#faf4f4" vector-effect="non-scaling-stroke" d="
  M 188.07 32.43
  Q 189.81 34.93 191.86 37.16
  Q 199.68 45.69 207.53 54.20
  Q 208.88 55.66 211.81 57.86"
/>
<path stroke="#949795" vector-effect="non-scaling-stroke" d="
  M 213.21 60.13
  Q 203.10 57.39 192.71 58.00"
/>
<path stroke="#f29191" vector-effect="non-scaling-stroke" d="
  M 58.88 38.51
  L 58.82 48.35
  A 0.55 0.55 0.0 0 0 59.36 48.91
  L 61.35 48.92
  A 5.24 5.02 0.4 0 0 66.63 43.94
  L 66.63 43.04
  A 5.24 5.02 0.4 0 0 61.43 37.98
  L 59.44 37.97
  A 0.55 0.55 0.0 0 0 58.88 38.51"
/>
<path stroke="#e77d7d" vector-effect="non-scaling-stroke" d="
  M 86.86 51.30
  L 86.84 61.51
  A 0.60 0.59 -85.5 0 0 87.34 62.10
  C 95.37 63.43 98.27 55.83 97.94 49.05"
/>
<path stroke="#ee8686" vector-effect="non-scaling-stroke" d="
  M 97.94 49.05
  C 97.86 42.57 94.81 36.96 87.37 38.10
  A 0.58 0.57 86.0 0 0 86.88 38.67
  L 86.86 51.30"
/>
<path stroke="#d91213" vector-effect="non-scaling-stroke" d="
  M 97.94 49.05
  Q 92.22 49.41 86.86 51.30"
/>
<path stroke="#fb7c7c" vector-effect="non-scaling-stroke" d="
  M 120.20 181.00
  Q 120.34 181.17 120.49 181.11
  Q 142.60 172.61 166.06 167.89
  A 0.30 0.30 0.0 0 0 166.18 167.36
  Q 157.97 161.33 152.06 154.28
  Q 146.15 147.24 141.64 138.10
  A 0.30 0.30 0.0 0 0 141.10 138.13
  Q 132.36 160.41 120.14 180.70
  Q 120.06 180.83 120.20 181.00"
/>
<path stroke="#ec898a" vector-effect="non-scaling-stroke" d="
  M 227.91 188.07
  A 4.15 4.15 0.0 0 0 223.76 183.92
  A 4.15 4.15 0.0 0 0 219.61 188.07
  A 4.15 4.15 0.0 0 0 223.76 192.22
  A 4.15 4.15 0.0 0 0 227.91 188.07"
/>
<path stroke="#949795" vector-effect="non-scaling-stroke" d="
  M 164.80 233.22
  A 0.36 0.36 0.0 0 1 165.43 233.32
  Q 165.56 233.72 165.43 234.72
  A 0.70 0.69 4.2 0 0 166.11 235.52
  L 169.42 235.53
  A 0.48 0.48 0.0 0 0 169.91 235.06
  L 170.09 199.08
  A 0.55 0.55 0.0 0 0 169.54 198.53
  L 165.36 198.50
  A 0.54 0.54 0.0 0 0 164.82 199.04
  L 164.76 211.23
  A 0.20 0.19 22.7 0 1 164.43 211.36
  Q 159.59 206.66 154.86 211.43
  C 150.82 215.51 151.65 226.02 153.32 230.77
  C 155.06 235.70 161.34 238.16 164.80 233.22"
/>
<path stroke="#949795" vector-effect="non-scaling-stroke" d="
  M 198.87 233.17
  C 202.30 238.13 208.59 235.70 210.35 230.78
  C 212.05 226.04 212.93 215.54 208.91 211.44
  Q 204.21 206.64 199.35 211.32
  A 0.20 0.19 -22.4 0 1 199.02 211.19
  L 199.02 199.00
  A 0.54 0.54 0.0 0 0 198.48 198.46
  L 194.30 198.46
  A 0.55 0.55 0.0 0 0 193.75 199.01
  L 193.75 234.98
  A 0.48 0.48 0.0 0 0 194.23 235.46
  L 197.54 235.46
  A 0.70 0.69 -4.0 0 0 198.23 234.67
  Q 198.10 233.67 198.23 233.27
  A 0.36 0.36 0.0 0 1 198.87 233.17"
/>
<path stroke="#949795" vector-effect="non-scaling-stroke" d="
  M 140.34 225.49
  Q 142.72 225.50 143.40 225.57
  A 0.72 0.71 86.5 0 1 144.03 226.14
  L 145.92 234.98
  A 0.71 0.71 0.0 0 0 146.61 235.54
  L 150.77 235.54
  A 0.38 0.38 0.0 0 0 151.14 235.08
  L 143.64 199.98
  A 0.55 0.55 0.0 0 0 143.12 199.55
  Q 141.75 199.50 140.52 199.49
  Q 139.28 199.48 137.91 199.51
  A 0.55 0.55 0.0 0 0 137.38 199.94
  L 129.42 234.94
  A 0.38 0.38 0.0 0 0 129.78 235.40
  L 133.94 235.46
  A 0.71 0.71 0.0 0 0 134.64 234.90
  L 136.65 226.09
  A 0.72 0.71 -85.7 0 1 137.28 225.53
  Q 137.96 225.47 140.34 225.49"
/>
<path stroke="#949795" vector-effect="non-scaling-stroke" d="
  M 172.72 222.39
  C 172.66 228.73 174.85 235.86 181.70 235.93
  C 188.54 236.01 190.89 228.93 190.96 222.59
  C 191.03 216.25 188.84 209.13 181.99 209.05
  C 175.14 208.98 172.79 216.05 172.72 222.39"
/>
<path stroke="#949795" vector-effect="non-scaling-stroke" d="
  M 219.59 223.68
  L 230.85 223.68
  A 0.59 0.59 0.0 0 0 231.44 223.13
  Q 231.83 217.97 230.37 214.17
  C 228.57 209.49 223.97 207.67 219.71 209.99
  C 215.71 212.15 214.31 216.87 214.04 221.30
  C 213.55 229.00 216.41 236.72 225.76 235.66
  Q 228.39 235.36 229.62 234.92
  A 1.08 1.07 -15.9 0 0 230.31 233.69
  L 229.83 231.45
  A 0.71 0.71 0.0 0 0 228.84 230.96
  Q 228.28 231.21 226.52 231.46
  C 221.08 232.22 219.37 228.58 219.19 224.10
  A 0.40 0.40 0.0 0 1 219.59 223.68"
/>
<path stroke="#ec898a" vector-effect="non-scaling-stroke" d="
  M 227.10 188.10
  A 3.33 3.33 0.0 0 0 223.77 184.77
  A 3.33 3.33 0.0 0 0 220.44 188.10
  A 3.33 3.33 0.0 0 0 223.77 191.43
  A 3.33 3.33 0.0 0 0 227.10 188.10"
/>
<path stroke="#ec898a" vector-effect="non-scaling-stroke" d="
  M 222.14 188.20
  Q 222.08 189.14 222.02 189.97
  A 0.37 0.37 0.0 0 0 222.73 190.11
  Q 222.99 189.28 223.41 188.42
  Q 223.46 188.31 223.46 188.28
  Q 223.46 188.24 223.42 188.13
  Q 223.12 187.23 222.96 186.37
  A 0.37 0.37 0.0 0 0 222.23 186.42
  Q 222.19 187.25 222.14 188.20"
/>
<path stroke="#ec898a" vector-effect="non-scaling-stroke" d="
  M 225.61 189.69
  Q 224.81 188.92 225.40 186.96
  A 0.67 0.66 27.6 0 0 225.17 186.26
  Q 224.89 186.05 224.39 186.03
  A 0.35 0.35 0.0 0 0 224.10 186.60
  Q 224.58 187.21 224.22 187.85
  Q 223.91 188.42 224.16 188.98
  Q 224.65 190.06 225.40 190.14
  A 0.26 0.26 0.0 0 0 225.61 189.69"
/>
<path stroke="#949795" vector-effect="non-scaling-stroke" d="
  M 161.1617 213.4601
  A 9.07 3.94 -89.8 0 0 157.1900 222.5162
  A 9.07 3.94 -89.8 0 0 161.0983 231.5999
  A 9.07 3.94 -89.8 0 0 165.0700 222.5438
  A 9.07 3.94 -89.8 0 0 161.1617 213.4601"
/>
<path stroke="#949795" vector-effect="non-scaling-stroke" d="
  M 202.5842 213.4700
  A 9.07 3.93 -90.1 0 0 198.6700 222.5469
  A 9.07 3.93 -90.1 0 0 202.6158 231.6100
  A 9.07 3.93 -90.1 0 0 206.5300 222.5331
  A 9.07 3.93 -90.1 0 0 202.5842 213.4700"
/>
<path stroke="#949795" vector-effect="non-scaling-stroke" d="
  M 140.52 206.48
  A 0.14 0.14 0.0 0 0 140.24 206.48
  L 137.40 220.99
  A 0.44 0.43 -84.5 0 0 137.82 221.51
  L 142.71 221.51
  A 0.42 0.41 -4.7 0 0 143.12 221.03
  L 140.52 206.48"
/>
<path stroke="#949795" vector-effect="non-scaling-stroke" d="
  M 181.7736 213.1100
  A 9.38 3.89 -90.1 0 0 177.9000 222.4968
  A 9.38 3.89 -90.1 0 0 181.8064 231.8700
  A 9.38 3.89 -90.1 0 0 185.6800 222.4832
  A 9.38 3.89 -90.1 0 0 181.7736 213.1100"
/>
<path stroke="#949795" vector-effect="non-scaling-stroke" d="
  M 219.70 219.72
  L 226.20 219.78
  A 0.28 0.28 0.0 0 0 226.48 219.50
  L 226.49 219.30
  A 6.14 3.51 -89.5 0 0 223.03 213.13
  L 222.99 213.13
  A 6.14 3.51 -89.5 0 0 219.43 219.24
  L 219.42 219.44
  A 0.28 0.28 0.0 0 0 219.70 219.72"
/>
</g>
<path fill="#010301" fill-opacity="0.082" d="
  M 242.11 237.28
  Q 242.12 220.32 242.13 203.33
  C 242.14 191.99 241.51 182.50 241.78 172.10
  C 242.36 148.78 242.10 133.99 242.13 94.76
  C 242.13 86.69 242.38 79.28 237.22 73.56
  Q 232.89 67.65 228.01 62.25
  Q 206.59 38.55 183.28 17.97
  Q 178.35 13.62 172.92 9.83
  Q 170.24 7.97 167.01 7.97
  Q 111.31 7.95 60.70 7.96
  A 0.74 0.73 -0.8 0 0 59.97 8.70
  L 60.02 19.70
  L 52.70 19.97
  L 58.38 9.23
  A 3.91 3.89 -81.2 0 1 61.08 7.24
  Q 69.37 5.66 74.66 5.65
  Q 112.76 5.57 152.99 5.10
  C 163.56 4.98 172.88 5.67 181.50 12.48
  Q 190.16 19.32 202.99 31.46
  Q 215.85 43.65 223.15 51.54
  Q 235.06 64.40 241.64 73.79
  Q 245.37 79.11 245.38 87.08
  Q 245.45 117.33 245.36 147.39
  C 245.31 160.17 243.15 172.72 243.75 185.52
  C 244.27 196.65 245.43 206.67 245.03 216.93
  C 244.69 225.66 244.29 234.95 241.25 242.12
  A 0.10 0.09 -26.4 0 1 241.07 242.06
  L 242.42 236.89
  A 0.60 0.43 62.1 0 0 242.44 236.74
  Q 244.72 216.17 243.28 194.13
  A 0.08 0.06 90.0 0 0 243.22 194.05
  Q 243.21 194.06 243.20 194.06
  A 0.08 0.07 75.1 0 0 243.17 194.12
  C 243.07 203.62 243.81 222.70 242.11 237.28
  Z"
/>
<path fill="#e1e1e1" d="
  M 237.22 73.56
  Q 238.48 75.74 238.03 78.77
  L 237.96 127.98
  Q 228.92 121.58 221.81 117.63
  Q 201.54 106.37 189.15 98.80
  C 176.17 90.87 164.03 87.73 148.83 86.82
  L 147.00 82.92
  Q 156.32 82.50 165.05 80.18
  L 173.38 80.12
  A 0.64 0.63 -90.0 0 0 174.01 79.48
  L 174.02 62.70
  L 174.02 21.04
  A 0.97 0.97 0.0 0 0 173.07 20.07
  L 169.01 19.97
  L 116.04 19.98
  L 71.01 19.99
  L 60.02 19.70
  L 59.97 8.70
  A 0.74 0.73 -0.8 0 1 60.70 7.96
  Q 111.31 7.95 167.01 7.97
  Q 170.24 7.97 172.92 9.83
  Q 178.35 13.62 183.28 17.97
  Q 206.59 38.55 228.01 62.25
  Q 232.89 67.65 237.22 73.56
  Z
  M 192.71 58.00
  Q 196.47 61.86 202.97 63.16
  C 209.90 64.55 214.98 66.22 219.85 63.25
  A 0.31 0.30 -49.9 0 0 219.81 62.70
  L 213.21 60.13
  L 211.81 57.86
  Q 200.61 44.55 188.07 32.43
  Q 187.54 31.88 186.85 31.53
  A 0.27 0.27 0.0 0 0 186.47 31.84
  Q 189.46 44.22 188.25 57.01
  A 0.58 0.58 0.0 0 0 188.78 57.64
  L 192.71 58.00
  Z"
/>
<path fill="#e83232" d="
  M 71.01 19.99
  Q 69.33 23.19 73.63 24.74
  C 77.73 26.23 86.86 24.77 87.29 31.96
  L 79.86 32.53
  A 0.58 0.57 88.4 0 0 79.33 33.10
  L 79.16 42.52
  Q 78.55 40.25 77.50 40.37
  Q 74.66 40.69 74.37 43.57
  Q 74.37 34.92 66.55 32.44
  L 64.02 26.53
  A 0.74 0.72 78.3 0 0 63.35 26.08
  Q 43.54 25.98 23.50 25.62
  Q 18.99 25.54 12.59 26.21
  A 0.57 0.55 -2.9 0 0 12.08 26.76
  L 12.08 38.86
  A 0.66 0.65 3.5 0 0 12.66 39.51
  Q 28.88 41.53 45.12 41.00
  Q 46.57 40.95 51.17 41.46
  L 51.15 51.21
  L 12.48 48.54
  A 0.48 0.48 0.0 0 0 11.97 49.01
  L 11.91 56.22
  L 6.04 55.21
  L 5.95 21.72
  Q 5.88 21.03 6.02 20.52
  A 0.71 0.71 0.0 0 1 6.70 20.01
  L 52.70 19.97
  L 60.02 19.70
  L 71.01 19.99
  Z"
/>
<path fill="#e01b1c" d="
  M 116.04 19.98
  L 116.29 25.48
  Q 111.71 25.59 107.14 25.63
  C 110.37 25.71 113.45 25.84 116.64 26.33
  A 1.12 1.09 -12.9 0 1 117.38 26.78
  L 121.28 32.16
  L 110.63 32.15
  A 0.49 0.48 -89.4 0 0 110.14 32.64
  L 110.16 56.21
  Q 107.91 55.57 105.41 55.70
  C 107.37 45.82 105.50 35.50 94.53 32.42
  Q 92.63 31.88 87.29 31.96
  C 86.86 24.77 77.73 26.23 73.63 24.74
  Q 69.33 23.19 71.01 19.99
  L 116.04 19.98
  Z"
/>
<path fill="#bb0000" d="
  M 169.01 19.97
  Q 167.22 24.10 168.04 28.21
  A 3.40 3.11 42.4 0 1 168.11 28.97
  L 167.93 45.67
  Q 149.38 56.10 129.10 61.90
  Q 123.78 63.42 118.43 64.88
  A 0.69 0.67 83.3 0 0 117.93 65.53
  L 117.89 67.60
  L 117.91 54.16
  A 0.51 0.50 -90.0 0 1 118.40 53.66
  L 128.30 53.33
  Q 134.15 48.84 137.21 46.09
  C 142.98 40.90 144.80 34.44 145.33 26.75
  A 0.48 0.47 3.5 0 0 144.87 26.24
  L 116.29 25.48
  L 116.04 19.98
  L 169.01 19.97
  Z"
/>
<path fill="#740000" d="
  M 174.02 62.70
  L 167.89 63.99
  L 167.93 45.67
  L 168.11 28.97
  A 3.40 3.11 42.4 0 0 168.04 28.21
  Q 167.22 24.10 169.01 19.97
  L 173.07 20.07
  A 0.97 0.97 0.0 0 1 174.02 21.04
  L 174.02 62.70
  Z"
/>
<path fill="#010301" fill-opacity="0.082" d="
  M 5.95 21.72
  L 6.04 55.21
  L 6.03 71.03
  L 6.05 79.32
  A 0.64 0.63 3.6 0 0 6.61 79.95
  L 7.44 80.05
  Q 11.91 82.40 17.05 82.40
  Q 41.64 82.38 42.97 82.35
  C 46.90 82.25 53.90 82.57 55.26 86.77
  Q 56.49 90.60 56.45 95.53
  Q 56.26 118.93 56.43 234.43
  C 56.44 239.81 58.68 248.24 64.51 250.07
  Q 70.10 251.82 75.77 251.77
  Q 87.94 251.67 214.75 251.61
  Q 224.41 251.61 231.43 249.48
  C 224.69 254.10 217.63 254.84 209.45 254.85
  Q 119.24 254.93 81.85 254.83
  Q 76.82 254.81 70.37 253.81
  C 55.31 251.48 53.46 235.62 53.45 223.43
  Q 53.35 133.62 53.43 106.95
  Q 53.45 100.90 52.73 95.22
  C 51.77 87.61 46.22 85.69 39.28 85.25
  Q 36.28 85.06 19.00 84.88
  C 12.26 84.82 5.61 82.92 4.00 75.15
  Q 2.81 69.46 2.83 62.90
  Q 2.87 49.58 3.08 36.36
  Q 3.21 28.76 5.95 21.72
  Z"
/>
<path fill="#d10909" d="
  M 116.29 25.48
  L 144.87 26.24
  A 0.48 0.47 3.5 0 1 145.33 26.75
  C 144.80 34.44 142.98 40.90 137.21 46.09
  Q 134.15 48.84 128.30 53.33
  L 128.35 47.76
  A 0.61 0.60 90.0 0 0 127.75 47.15
  L 118.17 47.15
  A 0.31 0.31 0.0 0 1 117.86 46.84
  L 117.86 38.92
  A 0.31 0.30 0.0 0 1 118.17 38.62
  L 128.41 38.62
  A 0.44 0.44 0.0 0 0 128.85 38.18
  L 128.85 32.66
  A 0.49 0.49 0.0 0 0 128.36 32.17
  L 121.28 32.16
  L 117.38 26.78
  A 1.12 1.09 -12.9 0 0 116.64 26.33
  C 113.45 25.84 110.37 25.71 107.14 25.63
  Q 111.71 25.59 116.29 25.48
  Z"
/>
<path fill="#f64040" d="
  M 66.55 32.44
  Q 59.16 31.43 51.83 32.53
  A 0.62 0.62 0.0 0 0 51.31 33.13
  L 51.17 41.46
  Q 46.57 40.95 45.12 41.00
  Q 28.88 41.53 12.66 39.51
  A 0.66 0.65 3.5 0 1 12.08 38.86
  L 12.08 26.76
  A 0.57 0.55 -2.9 0 1 12.59 26.21
  Q 18.99 25.54 23.50 25.62
  Q 43.54 25.98 63.35 26.08
  A 0.74 0.72 78.3 0 1 64.02 26.53
  L 66.55 32.44
  Z"
/>
<path fill="#f7f7f7" d="
  M 188.07 32.43
  Q 189.81 34.93 191.86 37.16
  Q 199.68 45.69 207.53 54.20
  Q 208.88 55.66 211.81 57.86
  L 213.21 60.13
  Q 203.10 57.39 192.71 58.00
  L 188.78 57.64
  A 0.58 0.58 0.0 0 1 188.25 57.01
  Q 189.46 44.22 186.47 31.84
  A 0.27 0.27 0.0 0 1 186.85 31.53
  Q 187.54 31.88 188.07 32.43
  Z"
/>
<path fill="#fcf0f0" d="
  M 66.55 32.44
  Q 74.37 34.92 74.37 43.57
  Q 73.44 53.66 63.14 54.78
  Q 61.31 54.98 59.36 55.09
  A 0.53 0.53 0.0 0 0 58.86 55.62
  L 58.86 63.31
  L 58.84 67.44
  A 0.48 0.47 85.0 0 1 58.45 67.91
  Q 53.59 68.74 51.03 67.04
  L 51.12 60.22
  L 51.15 51.21
  L 51.17 41.46
  L 51.31 33.13
  A 0.62 0.62 0.0 0 1 51.83 32.53
  Q 59.16 31.43 66.55 32.44
  Z
  M 58.88 38.51
  L 58.82 48.35
  A 0.55 0.55 0.0 0 0 59.36 48.91
  L 61.35 48.92
  A 5.24 5.02 0.4 0 0 66.63 43.94
  L 66.63 43.04
  A 5.24 5.02 0.4 0 0 61.43 37.98
  L 59.44 37.97
  A 0.55 0.55 0.0 0 0 58.88 38.51
  Z"
/>
<path fill="#fcf0f0" d="
  M 87.29 31.96
  Q 92.63 31.88 94.53 32.42
  C 105.50 35.50 107.37 45.82 105.41 55.70
  Q 103.21 65.28 94.01 67.53
  Q 87.48 69.13 79.88 67.89
  A 0.64 0.64 0.0 0 1 79.34 67.28
  L 79.16 63.23
  L 79.16 42.52
  L 79.33 33.10
  A 0.58 0.57 88.4 0 1 79.86 32.53
  L 87.29 31.96
  Z
  M 86.86 51.30
  L 86.84 61.51
  A 0.60 0.59 -85.5 0 0 87.34 62.10
  C 95.37 63.43 98.27 55.83 97.94 49.05
  C 97.86 42.57 94.81 36.96 87.37 38.10
  A 0.58 0.57 86.0 0 0 86.88 38.67
  L 86.86 51.30
  Z"
/>
<path fill="#fcf0f0" d="
  M 121.28 32.16
  L 128.36 32.17
  A 0.49 0.49 0.0 0 1 128.85 32.66
  L 128.85 38.18
  A 0.44 0.44 0.0 0 1 128.41 38.62
  L 118.17 38.62
  A 0.31 0.30 -0.0 0 0 117.86 38.92
  L 117.86 46.84
  A 0.31 0.31 0.0 0 0 118.17 47.15
  L 127.75 47.15
  A 0.61 0.60 -90.0 0 1 128.35 47.76
  L 128.30 53.33
  L 118.40 53.66
  A 0.51 0.50 -90.0 0 0 117.91 54.16
  L 117.89 67.60
  L 110.61 67.96
  A 0.44 0.43 88.8 0 1 110.16 67.52
  L 110.16 56.21
  L 110.14 32.64
  A 0.49 0.48 -89.4 0 1 110.63 32.15
  L 121.28 32.16
  Z"
/>
<path fill="#fcf0f0" d="
  M 211.81 57.86
  Q 208.88 55.66 207.53 54.20
  Q 199.68 45.69 191.86 37.16
  Q 189.81 34.93 188.07 32.43
  Q 200.61 44.55 211.81 57.86
  Z"
/>
<path fill="#e83232" d="
  M 58.88 38.51
  A 0.55 0.55 0.0 0 1 59.44 37.97
  L 61.43 37.98
  A 5.24 5.02 0.4 0 1 66.63 43.04
  L 66.63 43.94
  A 5.24 5.02 0.4 0 1 61.35 48.92
  L 59.36 48.91
  A 0.55 0.55 0.0 0 1 58.82 48.35
  L 58.88 38.51
  Z"
/>
<path fill="#e01b1c" d="
  M 97.94 49.05
  Q 92.22 49.41 86.86 51.30
  L 86.88 38.67
  A 0.58 0.57 86.0 0 1 87.37 38.10
  C 94.81 36.96 97.86 42.57 97.94 49.05
  Z"
/>
<path fill="#d10909" d="
  M 79.16 42.52
  L 79.16 63.23
  Q 68.98 62.56 58.86 63.31
  L 58.86 55.62
  A 0.53 0.53 0.0 0 1 59.36 55.09
  Q 61.31 54.98 63.14 54.78
  Q 73.44 53.66 74.37 43.57
  Q 74.66 40.69 77.50 40.37
  Q 78.55 40.25 79.16 42.52
  Z"
/>
<path fill="#a50000" d="
  M 167.93 45.67
  L 167.89 63.99
  L 167.79 73.26
  A 0.53 0.52 -0.0 0 1 167.27 73.77
  L 102.23 74.01
  L 12.52 74.10
  A 0.45 0.45 0.0 0 1 12.08 73.73
  L 12.03 73.43
  A 1.02 1.01 3.4 0 0 11.32 72.64
  L 6.03 71.03
  L 6.04 55.21
  L 11.91 56.22
  L 11.98 57.55
  L 12.18 64.35
  A 0.56 0.56 0.0 0 0 12.71 64.90
  L 51.03 67.04
  Q 53.59 68.74 58.45 67.91
  A 0.48 0.47 85.0 0 0 58.84 67.44
  L 58.86 63.31
  Q 68.98 62.56 79.16 63.23
  L 79.34 67.28
  A 0.64 0.64 0.0 0 0 79.88 67.89
  Q 87.48 69.13 94.01 67.53
  Q 103.21 65.28 105.41 55.70
  Q 107.91 55.57 110.16 56.21
  L 110.16 67.52
  A 0.44 0.43 88.8 0 0 110.61 67.96
  L 117.89 67.60
  L 117.93 65.53
  A 0.69 0.67 83.3 0 1 118.43 64.88
  Q 123.78 63.42 129.10 61.90
  Q 149.38 56.10 167.93 45.67
  Z"
/>
<path fill="#d10909" d="
  M 51.15 51.21
  L 51.12 60.22
  Q 47.05 59.35 45.10 59.28
  Q 28.49 58.70 11.98 57.55
  L 11.91 56.22
  L 11.97 49.01
  A 0.48 0.48 0.0 0 1 12.48 48.54
  L 51.15 51.21
  Z"
/>
<path fill="#d10909" d="
  M 97.94 49.05
  C 98.27 55.83 95.37 63.43 87.34 62.10
  A 0.60 0.59 -85.5 0 1 86.84 61.51
  L 86.86 51.30
  Q 92.22 49.41 97.94 49.05
  Z"
/>
<path fill="#bb0000" d="
  M 51.12 60.22
  L 51.03 67.04
  L 12.71 64.90
  A 0.56 0.56 0.0 0 1 12.18 64.35
  L 11.98 57.55
  Q 28.49 58.70 45.10 59.28
  Q 47.05 59.35 51.12 60.22
  Z"
/>
<path fill="#313633" d="
  M 213.21 60.13
  L 219.81 62.70
  A 0.31 0.30 -49.9 0 1 219.85 63.25
  C 214.98 66.22 209.90 64.55 202.97 63.16
  Q 196.47 61.86 192.71 58.00
  Q 203.10 57.39 213.21 60.13
  Z"
/>
<path fill="#630000" d="
  M 174.02 62.70
  L 174.01 79.48
  A 0.64 0.63 90.0 0 1 173.38 80.12
  L 165.05 80.18
  L 143.65 80.13
  L 137.42 80.13
  L 74.74 80.02
  L 102.23 74.01
  L 167.27 73.77
  A 0.53 0.52 -0.0 0 0 167.79 73.26
  L 167.89 63.99
  L 174.02 62.70
  Z"
/>
<path fill="#740000" d="
  M 102.23 74.01
  L 74.74 80.02
  L 59.97 80.14
  L 56.21 80.05
  L 54.99 80.06
  L 7.44 80.05
  L 6.61 79.95
  A 0.64 0.63 3.6 0 1 6.05 79.32
  L 6.03 71.03
  L 11.32 72.64
  A 1.02 1.01 3.4 0 1 12.03 73.43
  L 12.08 73.73
  A 0.45 0.45 0.0 0 0 12.52 74.10
  L 102.23 74.01
  Z"
/>
<path fill="#000000" fill-opacity="0.208" d="
  M 242.11 237.28
  L 241.20 238.95
  Q 241.04 240.10 240.72 240.55
  A 0.41 0.41 0.0 0 1 239.99 240.43
  Q 239.59 239.00 239.63 236.50
  Q 239.65 235.22 239.62 92.53
  Q 239.62 84.91 238.03 78.77
  Q 238.48 75.74 237.22 73.56
  C 242.38 79.28 242.13 86.69 242.13 94.76
  C 242.10 133.99 242.36 148.78 241.78 172.10
  C 241.51 182.50 242.14 191.99 242.13 203.33
  Q 242.12 220.32 242.11 237.28
  Z"
/>
<path fill="#000001" fill-opacity="0.318" d="
  M 241.20 238.95
  Q 239.66 246.36 233.50 249.09
  L 237.91 246.05
  A 0.08 0.08 0.0 0 0 237.93 245.95
  L 237.80 245.73
  A 0.34 0.33 61.3 0 0 237.37 245.60
  Q 230.09 249.20 219.98 249.18
  Q 174.43 249.11 79.51 249.12
  C 73.83 249.12 59.26 250.31 59.03 241.90
  Q 58.90 236.97 58.90 229.99
  Q 58.89 144.05 58.89 95.06
  Q 58.89 86.91 54.99 80.06
  L 56.21 80.05
  L 59.93 84.71
  Q 60.05 85.16 59.98 85.85
  L 60.00 242.45
  Q 59.38 243.41 59.71 244.24
  A 0.89 0.87 3.3 0 0 60.11 244.68
  Q 66.26 248.06 71.88 248.08
  Q 121.60 248.17 221.10 248.11
  C 224.20 248.11 228.40 247.81 232.21 247.37
  A 0.11 0.11 0.0 0 0 232.31 247.25
  L 232.31 247.24
  A 0.12 0.12 0.0 0 0 232.18 247.13
  Q 225.83 247.59 224.20 247.60
  Q 151.19 247.63 79.70 247.60
  C 72.60 247.60 67.26 247.63 60.64 244.63
  Q 69.80 245.86 73.81 245.86
  Q 148.39 245.89 222.97 245.92
  Q 228.83 245.92 234.30 244.00
  L 237.56 243.92
  A 0.46 0.46 0.0 0 0 238.01 243.46
  L 237.96 127.98
  L 238.03 78.77
  Q 239.62 84.91 239.62 92.53
  Q 239.65 235.22 239.63 236.50
  Q 239.59 239.00 239.99 240.43
  A 0.41 0.41 0.0 0 0 240.72 240.55
  Q 241.04 240.10 241.20 238.95
  Z"
/>
<path fill="#000000" fill-opacity="0.208" d="
  M 54.99 80.06
  Q 58.89 86.91 58.89 95.06
  Q 58.89 144.05 58.90 229.99
  Q 58.90 236.97 59.03 241.90
  C 59.26 250.31 73.83 249.12 79.51 249.12
  Q 174.43 249.11 219.98 249.18
  Q 230.09 249.20 237.37 245.60
  A 0.34 0.33 61.3 0 1 237.80 245.73
  L 237.93 245.95
  A 0.08 0.08 0.0 0 1 237.91 246.05
  L 233.50 249.09
  L 231.43 249.48
  Q 224.41 251.61 214.75 251.61
  Q 87.94 251.67 75.77 251.77
  Q 70.10 251.82 64.51 250.07
  C 58.68 248.24 56.44 239.81 56.43 234.43
  Q 56.26 118.93 56.45 95.53
  Q 56.49 90.60 55.26 86.77
  C 53.90 82.57 46.90 82.25 42.97 82.35
  Q 41.64 82.38 17.05 82.40
  Q 11.91 82.40 7.44 80.05
  L 54.99 80.06
  Z"
/>
<path fill="#000100" fill-opacity="0.494" d="
  M 59.97 80.14
  L 59.93 84.71
  L 56.21 80.05
  L 59.97 80.14
  Z"
/>
<path fill="#e1e1e1" d="
  M 74.74 80.02
  L 137.42 80.13
  Q 132.44 81.96 132.11 86.76
  Q 122.89 86.17 117.16 86.18
  Q 88.64 86.24 59.98 85.85
  Q 60.05 85.16 59.93 84.71
  L 59.97 80.14
  L 74.74 80.02
  Z"
/>
<path fill="#ff0000" d="
  M 143.65 80.13
  Q 145.98 81.39 147.00 82.92
  L 148.83 86.82
  Q 149.34 91.00 148.50 95.73
  A 0.12 0.12 0.0 0 1 148.27 95.72
  Q 147.56 88.61 143.02 82.35
  A 2.41 1.77 58.0 0 0 140.51 81.35
  Q 139.68 81.73 139.29 83.83
  C 137.24 95.00 139.07 107.01 142.22 118.46
  A 0.29 0.29 0.0 0 0 142.78 118.46
  L 147.52 100.43
  A 0.04 0.04 0.0 0 1 147.59 100.44
  Q 147.28 114.61 145.03 126.22
  A 2.40 2.35 41.2 0 0 145.13 127.50
  Q 151.00 143.36 159.55 153.27
  Q 164.70 159.23 175.89 165.93
  A 2.11 2.09 -34.4 0 0 177.31 166.19
  Q 191.49 163.73 206.68 164.82
  C 212.55 165.25 220.64 167.03 219.92 174.43
  A 0.30 0.30 0.0 0 1 219.39 174.60
  C 216.73 171.40 211.50 169.94 207.48 169.59
  Q 196.70 168.63 184.55 170.14
  A 0.25 0.25 0.0 0 0 184.48 170.61
  C 193.77 174.67 202.71 178.33 212.50 179.46
  Q 216.37 179.91 218.86 177.40
  A 0.26 0.25 71.8 0 1 219.29 177.62
  Q 218.51 182.82 214.02 183.52
  Q 208.82 184.32 201.94 182.84
  Q 187.15 179.65 173.60 172.01
  A 2.59 2.58 55.2 0 0 171.96 171.71
  Q 144.76 175.87 119.05 183.98
  A 1.97 1.92 4.8 0 0 117.92 184.91
  C 113.22 193.60 95.01 226.86 82.17 220.09
  Q 80.17 219.03 80.03 219.00
  C 76.72 218.08 76.39 214.72 77.59 212.07
  C 82.45 201.39 95.09 193.32 105.75 187.85
  A 0.07 0.07 0.0 0 1 105.84 187.96
  Q 102.41 191.63 98.03 195.52
  Q 88.20 204.26 83.27 213.53
  Q 82.15 215.62 81.98 217.56
  A 0.56 0.56 0.0 0 0 82.70 218.15
  C 86.98 216.89 90.82 213.47 94.02 209.77
  Q 100.71 202.02 105.30 194.54
  Q 123.81 164.41 137.85 131.36
  A 2.95 2.93 -41.3 0 0 137.98 129.46
  Q 134.53 116.69 132.60 105.09
  Q 131.06 95.92 132.11 86.76
  Q 132.44 81.96 137.42 80.13
  L 143.65 80.13
  Z
  M 120.20 181.00
  Q 120.34 181.17 120.49 181.11
  Q 142.60 172.61 166.06 167.89
  A 0.30 0.30 0.0 0 0 166.18 167.36
  Q 157.97 161.33 152.06 154.28
  Q 146.15 147.24 141.64 138.10
  A 0.30 0.30 0.0 0 0 141.10 138.13
  Q 132.36 160.41 120.14 180.70
  Q 120.06 180.83 120.20 181.00
  Z"
/>
<path fill="#e1e1e1" d="
  M 165.05 80.18
  Q 156.32 82.50 147.00 82.92
  Q 145.98 81.39 143.65 80.13
  L 165.05 80.18
  Z"
/>
<path fill="#f7f7f7" d="
  M 148.83 86.82
  C 164.03 87.73 176.17 90.87 189.15 98.80
  Q 201.54 106.37 221.81 117.63
  Q 228.92 121.58 237.96 127.98
  L 238.01 243.46
  A 0.46 0.46 0.0 0 1 237.56 243.92
  L 234.30 244.00
  Q 147.76 244.08 61.25 243.95
  Q 59.83 243.94 60.00 242.45
  L 59.98 85.85
  Q 88.64 86.24 117.16 86.18
  Q 122.89 86.17 132.11 86.76
  Q 131.06 95.92 132.60 105.09
  Q 134.53 116.69 137.98 129.46
  A 2.95 2.93 -41.3 0 1 137.85 131.36
  Q 123.81 164.41 105.30 194.54
  Q 100.71 202.02 94.02 209.77
  C 90.82 213.47 86.98 216.89 82.70 218.15
  A 0.56 0.56 0.0 0 1 81.98 217.56
  Q 82.15 215.62 83.27 213.53
  Q 88.20 204.26 98.03 195.52
  Q 102.41 191.63 105.84 187.96
  A 0.07 0.07 0.0 0 0 105.75 187.85
  C 95.09 193.32 82.45 201.39 77.59 212.07
  C 76.39 214.72 76.72 218.08 80.03 219.00
  Q 80.17 219.03 82.17 220.09
  C 95.01 226.86 113.22 193.60 117.92 184.91
  A 1.97 1.92 4.8 0 1 119.05 183.98
  Q 144.76 175.87 171.96 171.71
  A 2.59 2.58 55.2 0 1 173.60 172.01
  Q 187.15 179.65 201.94 182.84
  Q 208.82 184.32 214.02 183.52
  Q 218.51 182.82 219.29 177.62
  A 0.26 0.25 71.8 0 0 218.86 177.40
  Q 216.37 179.91 212.50 179.46
  C 202.71 178.33 193.77 174.67 184.48 170.61
  A 0.25 0.25 0.0 0 1 184.55 170.14
  Q 196.70 168.63 207.48 169.59
  C 211.50 169.94 216.73 171.40 219.39 174.60
  A 0.30 0.30 0.0 0 0 219.92 174.43
  C 220.64 167.03 212.55 165.25 206.68 164.82
  Q 191.49 163.73 177.31 166.19
  A 2.11 2.09 -34.4 0 1 175.89 165.93
  Q 164.70 159.23 159.55 153.27
  Q 151.00 143.36 145.13 127.50
  A 2.40 2.35 41.2 0 1 145.03 126.22
  Q 147.28 114.61 147.59 100.44
  A 0.04 0.04 0.0 0 0 147.52 100.43
  L 142.78 118.46
  A 0.29 0.29 0.0 0 1 142.22 118.46
  C 139.07 107.01 137.24 95.00 139.29 83.83
  Q 139.68 81.73 140.51 81.35
  A 2.41 1.77 58.0 0 1 143.02 82.35
  Q 147.56 88.61 148.27 95.72
  A 0.12 0.12 0.0 0 0 148.50 95.73
  Q 149.34 91.00 148.83 86.82
  Z
  M 227.91 188.07
  A 4.15 4.15 0.0 0 0 223.76 183.92
  A 4.15 4.15 0.0 0 0 219.61 188.07
  A 4.15 4.15 0.0 0 0 223.76 192.22
  A 4.15 4.15 0.0 0 0 227.91 188.07
  Z
  M 164.80 233.22
  A 0.36 0.36 0.0 0 1 165.43 233.32
  Q 165.56 233.72 165.43 234.72
  A 0.70 0.69 4.2 0 0 166.11 235.52
  L 169.42 235.53
  A 0.48 0.48 0.0 0 0 169.91 235.06
  L 170.09 199.08
  A 0.55 0.55 0.0 0 0 169.54 198.53
  L 165.36 198.50
  A 0.54 0.54 0.0 0 0 164.82 199.04
  L 164.76 211.23
  A 0.20 0.19 22.7 0 1 164.43 211.36
  Q 159.59 206.66 154.86 211.43
  C 150.82 215.51 151.65 226.02 153.32 230.77
  C 155.06 235.70 161.34 238.16 164.80 233.22
  Z
  M 198.87 233.17
  C 202.30 238.13 208.59 235.70 210.35 230.78
  C 212.05 226.04 212.93 215.54 208.91 211.44
  Q 204.21 206.64 199.35 211.32
  A 0.20 0.19 -22.4 0 1 199.02 211.19
  L 199.02 199.00
  A 0.54 0.54 0.0 0 0 198.48 198.46
  L 194.30 198.46
  A 0.55 0.55 0.0 0 0 193.75 199.01
  L 193.75 234.98
  A 0.48 0.48 0.0 0 0 194.23 235.46
  L 197.54 235.46
  A 0.70 0.69 -4.0 0 0 198.23 234.67
  Q 198.10 233.67 198.23 233.27
  A 0.36 0.36 0.0 0 1 198.87 233.17
  Z
  M 140.34 225.49
  Q 142.72 225.50 143.40 225.57
  A 0.72 0.71 86.5 0 1 144.03 226.14
  L 145.92 234.98
  A 0.71 0.71 0.0 0 0 146.61 235.54
  L 150.77 235.54
  A 0.38 0.38 0.0 0 0 151.14 235.08
  L 143.64 199.98
  A 0.55 0.55 0.0 0 0 143.12 199.55
  Q 141.75 199.50 140.52 199.49
  Q 139.28 199.48 137.91 199.51
  A 0.55 0.55 0.0 0 0 137.38 199.94
  L 129.42 234.94
  A 0.38 0.38 0.0 0 0 129.78 235.40
  L 133.94 235.46
  A 0.71 0.71 0.0 0 0 134.64 234.90
  L 136.65 226.09
  A 0.72 0.71 -85.7 0 1 137.28 225.53
  Q 137.96 225.47 140.34 225.49
  Z
  M 172.72 222.39
  C 172.66 228.73 174.85 235.86 181.70 235.93
  C 188.54 236.01 190.89 228.93 190.96 222.59
  C 191.03 216.25 188.84 209.13 181.99 209.05
  C 175.14 208.98 172.79 216.05 172.72 222.39
  Z
  M 219.59 223.68
  L 230.85 223.68
  A 0.59 0.59 0.0 0 0 231.44 223.13
  Q 231.83 217.97 230.37 214.17
  C 228.57 209.49 223.97 207.67 219.71 209.99
  C 215.71 212.15 214.31 216.87 214.04 221.30
  C 213.55 229.00 216.41 236.72 225.76 235.66
  Q 228.39 235.36 229.62 234.92
  A 1.08 1.07 -15.9 0 0 230.31 233.69
  L 229.83 231.45
  A 0.71 0.71 0.0 0 0 228.84 230.96
  Q 228.28 231.21 226.52 231.46
  C 221.08 232.22 219.37 228.58 219.19 224.10
  A 0.40 0.40 0.0 0 1 219.59 223.68
  Z"
/>
<path fill="#f7f7f7" d="
  M 152.06 154.28
  Q 157.97 161.33 166.18 167.36
  A 0.30 0.30 0.0 0 1 166.06 167.89
  Q 142.60 172.61 120.49 181.11
  Q 120.34 181.17 120.20 181.00
  Q 120.06 180.83 120.14 180.70
  Q 132.36 160.41 141.10 138.13
  A 0.30 0.30 0.0 0 1 141.64 138.10
  Q 146.15 147.24 152.06 154.28
  Z"
/>
<path fill="#e01b1c" d="
  M 227.91 188.07
  A 4.15 4.15 0.0 0 1 223.76 192.22
  A 4.15 4.15 0.0 0 1 219.61 188.07
  A 4.15 4.15 0.0 0 1 223.76 183.92
  A 4.15 4.15 0.0 0 1 227.91 188.07
  Z
  M 227.10 188.10
  A 3.33 3.33 0.0 0 0 223.77 184.77
  A 3.33 3.33 0.0 0 0 220.44 188.10
  A 3.33 3.33 0.0 0 0 223.77 191.43
  A 3.33 3.33 0.0 0 0 227.10 188.10
  Z"
/>
<path fill="#f7f7f7" d="
  M 227.10 188.10
  A 3.33 3.33 0.0 0 1 223.77 191.43
  A 3.33 3.33 0.0 0 1 220.44 188.10
  A 3.33 3.33 0.0 0 1 223.77 184.77
  A 3.33 3.33 0.0 0 1 227.10 188.10
  Z
  M 222.14 188.20
  Q 222.08 189.14 222.02 189.97
  A 0.37 0.37 0.0 0 0 222.73 190.11
  Q 222.99 189.28 223.41 188.42
  Q 223.46 188.31 223.46 188.28
  Q 223.46 188.24 223.42 188.13
  Q 223.12 187.23 222.96 186.37
  A 0.37 0.37 0.0 0 0 222.23 186.42
  Q 222.19 187.25 222.14 188.20
  Z
  M 225.61 189.69
  Q 224.81 188.92 225.40 186.96
  A 0.67 0.66 27.6 0 0 225.17 186.26
  Q 224.89 186.05 224.39 186.03
  A 0.35 0.35 0.0 0 0 224.10 186.60
  Q 224.58 187.21 224.22 187.85
  Q 223.91 188.42 224.16 188.98
  Q 224.65 190.06 225.40 190.14
  A 0.26 0.26 0.0 0 0 225.61 189.69
  Z"
/>
<path fill="#e01b1c" d="
  M 223.46 188.28
  Q 223.46 188.31 223.41 188.42
  Q 222.99 189.28 222.73 190.11
  A 0.37 0.37 0.0 0 1 222.02 189.97
  Q 222.08 189.14 222.14 188.20
  Q 222.19 187.25 222.23 186.42
  A 0.37 0.37 0.0 0 1 222.96 186.37
  Q 223.12 187.23 223.42 188.13
  Q 223.46 188.24 223.46 188.28
  Z"
/>
<path fill="#e01b1c" d="
  M 225.40 190.14
  Q 224.65 190.06 224.16 188.98
  Q 223.91 188.42 224.22 187.85
  Q 224.58 187.21 224.10 186.60
  A 0.35 0.35 0.0 0 1 224.39 186.03
  Q 224.89 186.05 225.17 186.26
  A 0.67 0.66 27.6 0 1 225.40 186.96
  Q 224.81 188.92 225.61 189.69
  A 0.26 0.26 0.0 0 1 225.40 190.14
  Z"
/>
<path fill="#313633" d="
  M 164.80 233.22
  C 161.34 238.16 155.06 235.70 153.32 230.77
  C 151.65 226.02 150.82 215.51 154.86 211.43
  Q 159.59 206.66 164.43 211.36
  A 0.20 0.19 22.7 0 0 164.76 211.23
  L 164.82 199.04
  A 0.54 0.54 0.0 0 1 165.36 198.50
  L 169.54 198.53
  A 0.55 0.55 0.0 0 1 170.09 199.08
  L 169.91 235.06
  A 0.48 0.48 0.0 0 1 169.42 235.53
  L 166.11 235.52
  A 0.70 0.69 4.2 0 1 165.43 234.72
  Q 165.56 233.72 165.43 233.32
  A 0.36 0.36 0.0 0 0 164.80 233.22
  Z
  M 161.1617 213.4601
  A 9.07 3.94 -89.8 0 0 157.1900 222.5162
  A 9.07 3.94 -89.8 0 0 161.0983 231.5999
  A 9.07 3.94 -89.8 0 0 165.0700 222.5438
  A 9.07 3.94 -89.8 0 0 161.1617 213.4601
  Z"
/>
<path fill="#313633" d="
  M 198.23 233.27
  Q 198.10 233.67 198.23 234.67
  A 0.70 0.69 -4.0 0 1 197.54 235.46
  L 194.23 235.46
  A 0.48 0.48 0.0 0 1 193.75 234.98
  L 193.75 199.01
  A 0.55 0.55 0.0 0 1 194.30 198.46
  L 198.48 198.46
  A 0.54 0.54 0.0 0 1 199.02 199.00
  L 199.02 211.19
  A 0.20 0.19 -22.4 0 0 199.35 211.32
  Q 204.21 206.64 208.91 211.44
  C 212.93 215.54 212.05 226.04 210.35 230.78
  C 208.59 235.70 202.30 238.13 198.87 233.17
  A 0.36 0.36 0.0 0 0 198.23 233.27
  Z
  M 202.5842 213.4700
  A 9.07 3.93 -90.1 0 0 198.6700 222.5469
  A 9.07 3.93 -90.1 0 0 202.6158 231.6100
  A 9.07 3.93 -90.1 0 0 206.5300 222.5331
  A 9.07 3.93 -90.1 0 0 202.5842 213.4700
  Z"
/>
<path fill="#313633" d="
  M 140.52 199.49
  Q 141.75 199.50 143.12 199.55
  A 0.55 0.55 0.0 0 1 143.64 199.98
  L 151.14 235.08
  A 0.38 0.38 0.0 0 1 150.77 235.54
  L 146.61 235.54
  A 0.71 0.71 0.0 0 1 145.92 234.98
  L 144.03 226.14
  A 0.72 0.71 86.5 0 0 143.40 225.57
  Q 142.72 225.50 140.34 225.49
  Q 137.96 225.47 137.28 225.53
  A 0.72 0.71 -85.7 0 0 136.65 226.09
  L 134.64 234.90
  A 0.71 0.71 0.0 0 1 133.94 235.46
  L 129.78 235.40
  A 0.38 0.38 0.0 0 1 129.42 234.94
  L 137.38 199.94
  A 0.55 0.55 0.0 0 1 137.91 199.51
  Q 139.28 199.48 140.52 199.49
  Z
  M 140.52 206.48
  A 0.14 0.14 0.0 0 0 140.24 206.48
  L 137.40 220.99
  A 0.44 0.43 -84.5 0 0 137.82 221.51
  L 142.71 221.51
  A 0.42 0.41 -4.7 0 0 143.12 221.03
  L 140.52 206.48
  Z"
/>
<path fill="#f7f7f7" d="
  M 140.52 206.48
  L 143.12 221.03
  A 0.42 0.41 -4.7 0 1 142.71 221.51
  L 137.82 221.51
  A 0.44 0.43 -84.5 0 1 137.40 220.99
  L 140.24 206.48
  A 0.14 0.14 0.0 0 1 140.52 206.48
  Z"
/>
<path fill="#313633" d="
  M 181.99 209.05
  C 188.84 209.13 191.03 216.25 190.96 222.59
  C 190.89 228.93 188.54 236.01 181.70 235.93
  C 174.85 235.86 172.66 228.73 172.72 222.39
  C 172.79 216.05 175.14 208.98 181.99 209.05
  Z
  M 181.7736 213.1100
  A 9.38 3.89 -90.1 0 0 177.9000 222.4968
  A 9.38 3.89 -90.1 0 0 181.8064 231.8700
  A 9.38 3.89 -90.1 0 0 185.6800 222.4832
  A 9.38 3.89 -90.1 0 0 181.7736 213.1100
  Z"
/>
<path fill="#313633" d="
  M 219.19 224.10
  C 219.37 228.58 221.08 232.22 226.52 231.46
  Q 228.28 231.21 228.84 230.96
  A 0.71 0.71 0.0 0 1 229.83 231.45
  L 230.31 233.69
  A 1.08 1.07 -15.9 0 1 229.62 234.92
  Q 228.39 235.36 225.76 235.66
  C 216.41 236.72 213.55 229.00 214.04 221.30
  C 214.31 216.87 215.71 212.15 219.71 209.99
  C 223.97 207.67 228.57 209.49 230.37 214.17
  Q 231.83 217.97 231.44 223.13
  A 0.59 0.59 0.0 0 1 230.85 223.68
  L 219.59 223.68
  A 0.40 0.40 0.0 0 0 219.19 224.10
  Z
  M 219.70 219.72
  L 226.20 219.78
  A 0.28 0.28 0.0 0 0 226.48 219.50
  L 226.49 219.30
  A 6.14 3.51 -89.5 0 0 223.03 213.13
  L 222.99 213.13
  A 6.14 3.51 -89.5 0 0 219.43 219.24
  L 219.42 219.44
  A 0.28 0.28 0.0 0 0 219.70 219.72
  Z"
/>
<path fill="#f7f7f7" d="
  M 219.70 219.72
  A 0.28 0.28 0.0 0 1 219.42 219.44
  L 219.43 219.24
  A 6.14 3.51 -89.5 0 1 222.99 213.13
  L 223.03 213.13
  A 6.14 3.51 -89.5 0 1 226.49 219.30
  L 226.48 219.50
  A 0.28 0.28 0.0 0 1 226.20 219.78
  L 219.70 219.72
  Z"
/>
<ellipse fill="#f7f7f7" cx="0.00" cy="0.00" transform="translate(181.79,222.49) rotate(-90.1)" rx="9.38" ry="3.89"/>
<ellipse fill="#f7f7f7" cx="0.00" cy="0.00" transform="translate(202.60,222.54) rotate(-90.1)" rx="9.07" ry="3.93"/>
<ellipse fill="#f7f7f7" cx="0.00" cy="0.00" transform="translate(161.13,222.53) rotate(-89.8)" rx="9.07" ry="3.94"/>
<path fill="#000100" fill-opacity="0.494" d="
  M 60.00 242.45
  Q 59.83 243.94 61.25 243.95
  Q 147.76 244.08 234.30 244.00
  Q 228.83 245.92 222.97 245.92
  Q 148.39 245.89 73.81 245.86
  Q 69.80 245.86 60.64 244.63
  C 67.26 247.63 72.60 247.60 79.70 247.60
  Q 151.19 247.63 224.20 247.60
  Q 225.83 247.59 232.18 247.13
  A 0.12 0.12 0.0 0 1 232.31 247.24
  L 232.31 247.25
  A 0.11 0.11 0.0 0 1 232.21 247.37
  C 228.40 247.81 224.20 248.11 221.10 248.11
  Q 121.60 248.17 71.88 248.08
  Q 66.26 248.06 60.11 244.68
  A 0.89 0.87 3.3 0 1 59.71 244.24
  Q 59.38 243.41 60.00 242.45
  Z"
/>
</svg>
