<?xml version="1.0" encoding="UTF-8" standalone="no"?>
<!DOCTYPE svg PUBLIC "-//W3C//DTD SVG 1.1//EN" "http://www.w3.org/Graphics/SVG/1.1/DTD/svg11.dtd">
<svg xmlns="http://www.w3.org/2000/svg" version="1.1" viewBox="0.00 0.00 200.00 200.00">
<g stroke-width="2.00" fill="none" stroke-linecap="butt">
<path stroke="#808000" vector-effect="non-scaling-stroke" d="
  M 50.25 50.28
  Q 50.19 50.34 50.14 50.42
  Q 50.06 50.56 50.06 50.57
  Q 49.98 52.55 49.98 59.44
  A 0.60 0.60 0.0 0 1 49.38 60.04
  L 40.78 60.04
  A 0.79 0.79 0.0 0 0 39.99 60.83
  L 39.99 79.37
  A 0.61 0.60 -0.5 0 1 39.39 79.97
  L 30.75 80.08
  A 0.68 0.67 0.4 0 0 30.08 80.73
  Q 29.99 82.12 29.99 105.02
  Q 29.99 127.91 30.08 129.30
  A 0.68 0.67 -0.4 0 0 30.75 129.95
  L 39.39 130.06
  A 0.61 0.60 0.5 0 1 39.99 130.66
  L 39.99 149.20
  A 0.79 0.79 0.0 0 0 40.78 149.99
  L 49.38 149.99
  A 0.60 0.60 0.0 0 1 49.98 150.59
  Q 49.98 157.48 50.06 159.46
  Q 50.06 159.47 50.14 159.62
  Q 50.19 159.69 50.25 159.75
  Q 50.31 159.81 50.38 159.86
  Q 50.53 159.94 50.54 159.94
  Q 52.52 160.02 59.41 160.02
  A 0.60 0.60 0.0 0 1 60.01 160.62
  L 60.01 169.22
  A 0.79 0.79 0.0 0 0 60.80 170.01
  L 79.34 170.01
  A 0.61 0.60 89.5 0 1 79.94 170.61
  L 80.05 179.25
  A 0.68 0.67 -89.6 0 0 80.70 179.92
  Q 82.09 180.02 104.98 180.02
  Q 127.88 180.02 129.27 179.92
  A 0.68 0.67 89.6 0 0 129.92 179.25
  L 130.03 170.61
  A 0.61 0.60 -89.5 0 1 130.63 170.01
  L 149.17 170.01
  A 0.79 0.79 0.0 0 0 149.96 169.22
  L 149.96 160.62
  A 0.60 0.60 0.0 0 1 150.56 160.02
  Q 157.45 160.02 159.43 159.94
  Q 159.44 159.94 159.58 159.86
  Q 159.66 159.81 159.72 159.75
  Q 159.78 159.69 159.82 159.62
  Q 159.91 159.47 159.91 159.46
  Q 159.99 157.48 159.99 150.59
  A 0.60 0.60 0.0 0 1 160.59 149.99
  L 169.19 149.99
  A 0.79 0.79 0.0 0 0 169.98 149.20
  L 169.98 130.66
  A 0.61 0.60 -0.5 0 1 170.58 130.06
  L 179.22 129.95
  A 0.68 0.67 0.4 0 0 179.89 129.30
  Q 179.98 127.91 179.98 105.02
  Q 179.98 82.12 179.89 80.73
  A 0.68 0.67 -0.4 0 0 179.22 80.08
  L 170.58 79.97
  A 0.61 0.60 0.5 0 1 169.98 79.37
  L 169.98 60.83
  A 0.79 0.79 0.0 0 0 169.19 60.04
  L 160.59 60.04
  A 0.60 0.60 0.0 0 1 159.99 59.44
  Q 159.99 52.55 159.91 50.57
  Q 159.91 50.56 159.82 50.42
  Q 159.78 50.34 159.72 50.28
  Q 159.66 50.22 159.58 50.18
  Q 159.44 50.09 159.43 50.09
  Q 157.45 50.01 150.56 50.01
  A 0.60 0.60 0.0 0 1 149.96 49.41
  L 149.96 40.81
  A 0.79 0.79 0.0 0 0 149.17 40.02
  L 130.63 40.02
  A 0.61 0.60 89.5 0 1 130.03 39.42
  L 129.92 30.78
  A 0.68 0.67 -89.6 0 0 129.27 30.11
  Q 127.88 30.02 104.98 30.02
  Q 82.09 30.02 80.70 30.11
  A 0.68 0.67 89.6 0 0 80.05 30.78
  L 79.94 39.42
  A 0.61 0.60 -89.5 0 1 79.34 40.02
  L 60.80 40.02
  A 0.79 0.79 0.0 0 0 60.01 40.81
  L 60.01 49.41
  A 0.60 0.60 0.0 0 1 59.41 50.01
  Q 52.52 50.01 50.54 50.09
  Q 50.53 50.09 50.38 50.18
  Q 50.31 50.22 50.25 50.28"
/>
<path stroke="#808000" vector-effect="non-scaling-stroke" d="
  M 90.0261 70.7975
  A 0.76 0.76 0.0 0 0 89.2674 70.0361
  L 70.7875 70.0039
  A 0.76 0.76 0.0 0 0 70.0261 70.7626
  L 69.9939 89.2425
  A 0.76 0.76 0.0 0 0 70.7526 90.0039
  L 89.2325 90.0361
  A 0.76 0.76 0.0 0 0 89.9939 89.2774
  L 90.0261 70.7975"
/>
<path stroke="#808000" vector-effect="non-scaling-stroke" d="
  M 140.00 70.89
  A 0.87 0.87 0.0 0 0 139.13 70.02
  L 120.87 70.02
  A 0.87 0.87 0.0 0 0 120.00 70.89
  L 120.00 89.15
  A 0.87 0.87 0.0 0 0 120.87 90.02
  L 139.13 90.02
  A 0.87 0.87 0.0 0 0 140.00 89.15
  L 140.00 70.89"
/>
<path stroke="#808000" vector-effect="non-scaling-stroke" d="
  M 140.06 129.95
  L 149.63 129.94
  A 0.36 0.36 0.0 0 0 149.99 129.58
  L 149.99 120.51
  A 0.48 0.47 -90.0 0 0 149.52 120.03
  L 140.75 120.03
  A 0.59 0.59 0.0 0 0 140.16 120.62
  L 140.06 129.95"
/>
<path stroke="#808000" vector-effect="non-scaling-stroke" d="
  M 140.06 129.95
  L 130.63 129.98
  A 0.64 0.64 0.0 0 0 130.00 130.62
  L 130.00 139.50
  A 0.50 0.50 0.0 0 1 129.50 140.00
  L 80.98 140.00
  A 0.95 0.94 -0.0 0 1 80.03 139.06
  L 80.03 130.71
  A 0.70 0.70 0.0 0 0 79.33 130.01
  L 70.83 130.01
  A 0.83 0.82 -0.0 0 1 70.00 129.19
  L 70.00 120.51
  A 0.47 0.46 90.0 0 0 69.54 120.04
  L 60.51 120.04
  A 0.46 0.46 0.0 0 0 60.05 120.50
  L 60.05 129.19
  A 0.79 0.78 -0.0 0 0 60.84 129.97
  L 69.38 129.97
  A 0.62 0.62 0.0 0 1 70.00 130.59
  L 70.00 139.33
  A 0.67 0.67 0.0 0 0 70.67 140.00
  L 79.19 140.00
  A 0.82 0.82 0.0 0 1 80.01 140.82
  L 80.01 149.25
  A 0.72 0.72 0.0 0 0 80.73 149.97
  L 129.35 149.97
  A 0.68 0.67 90.0 0 0 130.02 149.29
  L 130.02 140.54
  A 0.53 0.52 0.0 0 1 130.55 140.02
  L 139.43 140.02
  A 0.58 0.58 0.0 0 0 140.01 139.44
  L 140.06 129.95"
/>
</g>
<path fill="#000000" d="
  M 105.01 20.00
  Q 127.83 20.00 129.45 20.02
  A 0.55 0.55 0.0 0 1 130.00 20.57
  L 130.00 29.42
  A 0.59 0.58 0.0 0 0 130.59 30.00
  L 149.54 30.00
  A 0.46 0.46 0.0 0 1 150.00 30.46
  L 150.00 39.41
  A 0.59 0.59 0.0 0 0 150.59 40.00
  L 159.33 40.00
  A 0.62 0.62 0.0 0 1 159.95 40.58
  Q 160.11 42.92 159.98 48.50
  Q 159.96 49.68 160.14 49.87
  Q 160.33 50.05 161.51 50.03
  Q 167.09 49.90 169.43 50.06
  A 0.62 0.62 0.0 0 1 170.01 50.68
  L 170.01 59.42
  A 0.59 0.59 0.0 0 0 170.60 60.01
  L 179.55 60.01
  A 0.46 0.46 0.0 0 1 180.01 60.47
  L 180.00 79.42
  A 0.59 0.58 -90.0 0 0 180.58 80.01
  L 189.43 80.01
  A 0.55 0.55 0.0 0 1 189.99 80.56
  Q 190.00 82.18 190.00 105.01
  Q 190.00 127.83 189.98 129.46
  A 0.55 0.55 0.0 0 1 189.43 130.00
  L 180.58 130.00
  A 0.59 0.58 -90.0 0 0 180.00 130.59
  L 180.00 149.54
  A 0.46 0.46 0.0 0 1 179.54 150.00
  L 170.59 150.00
  A 0.59 0.59 0.0 0 0 170.00 150.59
  L 170.00 159.33
  A 0.62 0.62 0.0 0 1 169.42 159.95
  Q 167.08 160.11 161.50 159.98
  Q 160.32 159.96 160.13 160.14
  Q 159.95 160.33 159.97 161.51
  Q 160.10 167.09 159.94 169.43
  A 0.62 0.62 0.0 0 1 159.32 170.01
  L 150.58 170.01
  A 0.59 0.59 0.0 0 0 149.99 170.60
  L 149.99 179.55
  A 0.46 0.46 0.0 0 1 149.53 180.01
  L 130.58 180.01
  A 0.59 0.58 0.0 0 0 129.99 180.58
  L 129.99 189.43
  A 0.55 0.55 0.0 0 1 129.44 189.99
  Q 127.82 190.00 104.99 190.00
  Q 82.17 190.00 80.55 189.99
  A 0.55 0.55 0.0 0 1 80.00 189.43
  L 80.00 180.58
  A 0.59 0.58 0.0 0 0 79.41 180.00
  L 60.46 180.00
  A 0.46 0.46 0.0 0 1 60.00 179.54
  L 60.00 170.59
  A 0.59 0.59 0.0 0 0 59.41 170.00
  L 50.67 170.00
  A 0.62 0.62 0.0 0 1 50.05 169.42
  Q 49.89 167.08 50.02 161.50
  Q 50.05 160.32 49.86 160.13
  Q 49.67 159.95 48.49 159.97
  Q 42.91 160.10 40.57 159.94
  A 0.62 0.62 0.0 0 1 39.99 159.32
  L 39.99 150.58
  A 0.59 0.59 0.0 0 0 39.40 149.99
  L 30.45 149.99
  A 0.46 0.46 0.0 0 1 29.99 149.53
  L 30.00 130.58
  A 0.59 0.58 -90.0 0 0 29.42 129.99
  L 20.57 129.99
  A 0.55 0.55 0.0 0 1 20.01 129.44
  Q 20.00 127.82 20.00 105.00
  Q 20.00 82.17 20.02 80.55
  A 0.55 0.55 0.0 0 1 20.57 80.00
  L 29.42 80.00
  A 0.59 0.58 90.0 0 0 30.00 79.41
  L 30.00 60.46
  A 0.46 0.46 0.0 0 1 30.46 60.00
  L 39.41 60.00
  A 0.59 0.59 0.0 0 0 40.00 59.41
  L 40.00 50.67
  A 0.62 0.62 0.0 0 1 40.58 50.05
  Q 42.92 49.89 48.50 50.02
  Q 49.68 50.05 49.87 49.86
  Q 50.05 49.67 50.03 48.49
  Q 49.90 42.91 50.06 40.57
  A 0.62 0.62 0.0 0 1 50.68 39.99
  L 59.42 39.99
  A 0.59 0.59 0.0 0 0 60.01 39.40
  L 60.01 30.45
  A 0.46 0.46 0.0 0 1 60.47 29.99
  L 79.42 30.00
  A 0.59 0.58 0.0 0 0 80.01 29.42
  L 80.01 20.57
  A 0.55 0.55 0.0 0 1 80.56 20.01
  Q 82.18 20.00 105.01 20.00
  Z
  M 50.25 50.28
  Q 50.19 50.34 50.14 50.42
  Q 50.06 50.56 50.06 50.57
  Q 49.98 52.55 49.98 59.44
  A 0.60 0.60 0.0 0 1 49.38 60.04
  L 40.78 60.04
  A 0.79 0.79 0.0 0 0 39.99 60.83
  L 39.99 79.37
  A 0.61 0.60 -0.5 0 1 39.39 79.97
  L 30.75 80.08
  A 0.68 0.67 0.4 0 0 30.08 80.73
  Q 29.99 82.12 29.99 105.02
  Q 29.99 127.91 30.08 129.30
  A 0.68 0.67 -0.4 0 0 30.75 129.95
  L 39.39 130.06
  A 0.61 0.60 0.5 0 1 39.99 130.66
  L 39.99 149.20
  A 0.79 0.79 0.0 0 0 40.78 149.99
  L 49.38 149.99
  A 0.60 0.60 0.0 0 1 49.98 150.59
  Q 49.98 157.48 50.06 159.46
  Q 50.06 159.47 50.14 159.62
  Q 50.19 159.69 50.25 159.75
  Q 50.31 159.81 50.38 159.86
  Q 50.53 159.94 50.54 159.94
  Q 52.52 160.02 59.41 160.02
  A 0.60 0.60 0.0 0 1 60.01 160.62
  L 60.01 169.22
  A 0.79 0.79 0.0 0 0 60.80 170.01
  L 79.34 170.01
  A 0.61 0.60 89.5 0 1 79.94 170.61
  L 80.05 179.25
  A 0.68 0.67 -89.6 0 0 80.70 179.92
  Q 82.09 180.02 104.98 180.02
  Q 127.88 180.02 129.27 179.92
  A 0.68 0.67 89.6 0 0 129.92 179.25
  L 130.03 170.61
  A 0.61 0.60 -89.5 0 1 130.63 170.01
  L 149.17 170.01
  A 0.79 0.79 0.0 0 0 149.96 169.22
  L 149.96 160.62
  A 0.60 0.60 0.0 0 1 150.56 160.02
  Q 157.45 160.02 159.43 159.94
  Q 159.44 159.94 159.58 159.86
  Q 159.66 159.81 159.72 159.75
  Q 159.78 159.69 159.82 159.62
  Q 159.91 159.47 159.91 159.46
  Q 159.99 157.48 159.99 150.59
  A 0.60 0.60 0.0 0 1 160.59 149.99
  L 169.19 149.99
  A 0.79 0.79 0.0 0 0 169.98 149.20
  L 169.98 130.66
  A 0.61 0.60 -0.5 0 1 170.58 130.06
  L 179.22 129.95
  A 0.68 0.67 0.4 0 0 179.89 129.30
  Q 179.98 127.91 179.98 105.02
  Q 179.98 82.12 179.89 80.73
  A 0.68 0.67 -0.4 0 0 179.22 80.08
  L 170.58 79.97
  A 0.61 0.60 0.5 0 1 169.98 79.37
  L 169.98 60.83
  A 0.79 0.79 0.0 0 0 169.19 60.04
  L 160.59 60.04
  A 0.60 0.60 0.0 0 1 159.99 59.44
  Q 159.99 52.55 159.91 50.57
  Q 159.91 50.56 159.82 50.42
  Q 159.78 50.34 159.72 50.28
  Q 159.66 50.22 159.58 50.18
  Q 159.44 50.09 159.43 50.09
  Q 157.45 50.01 150.56 50.01
  A 0.60 0.60 0.0 0 1 149.96 49.41
  L 149.96 40.81
  A 0.79 0.79 0.0 0 0 149.17 40.02
  L 130.63 40.02
  A 0.61 0.60 89.5 0 1 130.03 39.42
  L 129.92 30.78
  A 0.68 0.67 -89.6 0 0 129.27 30.11
  Q 127.88 30.02 104.98 30.02
  Q 82.09 30.02 80.70 30.11
  A 0.68 0.67 89.6 0 0 80.05 30.78
  L 79.94 39.42
  A 0.61 0.60 -89.5 0 1 79.34 40.02
  L 60.80 40.02
  A 0.79 0.79 0.0 0 0 60.01 40.81
  L 60.01 49.41
  A 0.60 0.60 0.0 0 1 59.41 50.01
  Q 52.52 50.01 50.54 50.09
  Q 50.53 50.09 50.38 50.18
  Q 50.31 50.22 50.25 50.28
  Z"
/>
<path fill="#ffff00" d="
  M 104.98 30.02
  Q 127.88 30.02 129.27 30.11
  A 0.68 0.67 -89.6 0 1 129.92 30.78
  L 130.03 39.42
  A 0.61 0.60 89.5 0 0 130.63 40.02
  L 149.17 40.02
  A 0.79 0.79 0.0 0 1 149.96 40.81
  L 149.96 49.41
  A 0.60 0.60 0.0 0 0 150.56 50.01
  Q 157.45 50.01 159.43 50.09
  Q 159.44 50.09 159.58 50.18
  Q 159.66 50.22 159.72 50.28
  Q 159.78 50.34 159.82 50.42
  Q 159.91 50.56 159.91 50.57
  Q 159.99 52.55 159.99 59.44
  A 0.60 0.60 0.0 0 0 160.59 60.04
  L 169.19 60.04
  A 0.79 0.79 0.0 0 1 169.98 60.83
  L 169.98 79.37
  A 0.61 0.60 0.5 0 0 170.58 79.97
  L 179.22 80.08
  A 0.68 0.67 -0.4 0 1 179.89 80.73
  Q 179.98 82.12 179.98 105.02
  Q 179.98 127.91 179.89 129.30
  A 0.68 0.67 0.4 0 1 179.22 129.95
  L 170.58 130.06
  A 0.61 0.60 -0.5 0 0 169.98 130.66
  L 169.98 149.20
  A 0.79 0.79 0.0 0 1 169.19 149.99
  L 160.59 149.99
  A 0.60 0.60 0.0 0 0 159.99 150.59
  Q 159.99 157.48 159.91 159.46
  Q 159.91 159.47 159.82 159.62
  Q 159.78 159.69 159.72 159.75
  Q 159.66 159.81 159.58 159.86
  Q 159.44 159.94 159.43 159.94
  Q 157.45 160.02 150.56 160.02
  A 0.60 0.60 0.0 0 0 149.96 160.62
  L 149.96 169.22
  A 0.79 0.79 0.0 0 1 149.17 170.01
  L 130.63 170.01
  A 0.61 0.60 -89.5 0 0 130.03 170.61
  L 129.92 179.25
  A 0.68 0.67 89.6 0 1 129.27 179.92
  Q 127.88 180.02 104.98 180.02
  Q 82.09 180.02 80.70 179.92
  A 0.68 0.67 -89.6 0 1 80.05 179.25
  L 79.94 170.61
  A 0.61 0.60 89.5 0 0 79.34 170.01
  L 60.80 170.01
  A 0.79 0.79 0.0 0 1 60.01 169.22
  L 60.01 160.62
  A 0.60 0.60 0.0 0 0 59.41 160.02
  Q 52.52 160.02 50.54 159.94
  Q 50.53 159.94 50.38 159.86
  Q 50.31 159.81 50.25 159.75
  Q 50.19 159.69 50.14 159.62
  Q 50.06 159.47 50.06 159.46
  Q 49.98 157.48 49.98 150.59
  A 0.60 0.60 0.0 0 0 49.38 149.99
  L 40.78 149.99
  A 0.79 0.79 0.0 0 1 39.99 149.20
  L 39.99 130.66
  A 0.61 0.60 0.5 0 0 39.39 130.06
  L 30.75 129.95
  A 0.68 0.67 -0.4 0 1 30.08 129.30
  Q 29.99 127.91 29.99 105.02
  Q 29.99 82.12 30.08 80.73
  A 0.68 0.67 0.4 0 1 30.75 80.08
  L 39.39 79.97
  A 0.61 0.60 -0.5 0 0 39.99 79.37
  L 39.99 60.83
  A 0.79 0.79 0.0 0 1 40.78 60.04
  L 49.38 60.04
  A 0.60 0.60 0.0 0 0 49.98 59.44
  Q 49.98 52.55 50.06 50.57
  Q 50.06 50.56 50.14 50.42
  Q 50.19 50.34 50.25 50.28
  Q 50.31 50.22 50.38 50.18
  Q 50.53 50.09 50.54 50.09
  Q 52.52 50.01 59.41 50.01
  A 0.60 0.60 0.0 0 0 60.01 49.41
  L 60.01 40.81
  A 0.79 0.79 0.0 0 1 60.80 40.02
  L 79.34 40.02
  A 0.61 0.60 -89.5 0 0 79.94 39.42
  L 80.05 30.78
  A 0.68 0.67 89.6 0 1 80.70 30.11
  Q 82.09 30.02 104.98 30.02
  Z
  M 90.0261 70.7975
  A 0.76 0.76 0.0 0 0 89.2674 70.0361
  L 70.7875 70.0039
  A 0.76 0.76 0.0 0 0 70.0261 70.7626
  L 69.9939 89.2425
  A 0.76 0.76 0.0 0 0 70.7526 90.0039
  L 89.2325 90.0361
  A 0.76 0.76 0.0 0 0 89.9939 89.2774
  L 90.0261 70.7975
  Z
  M 140.00 70.89
  A 0.87 0.87 0.0 0 0 139.13 70.02
  L 120.87 70.02
  A 0.87 0.87 0.0 0 0 120.00 70.89
  L 120.00 89.15
  A 0.87 0.87 0.0 0 0 120.87 90.02
  L 139.13 90.02
  A 0.87 0.87 0.0 0 0 140.00 89.15
  L 140.00 70.89
  Z
  M 140.06 129.95
  L 149.63 129.94
  A 0.36 0.36 0.0 0 0 149.99 129.58
  L 149.99 120.51
  A 0.48 0.47 -90.0 0 0 149.52 120.03
  L 140.75 120.03
  A 0.59 0.59 0.0 0 0 140.16 120.62
  L 140.06 129.95
  L 130.63 129.98
  A 0.64 0.64 0.0 0 0 130.00 130.62
  L 130.00 139.50
  A 0.50 0.50 0.0 0 1 129.50 140.00
  L 80.98 140.00
  A 0.95 0.94 -0.0 0 1 80.03 139.06
  L 80.03 130.71
  A 0.70 0.70 0.0 0 0 79.33 130.01
  L 70.83 130.01
  A 0.83 0.82 -0.0 0 1 70.00 129.19
  L 70.00 120.51
  A 0.47 0.46 90.0 0 0 69.54 120.04
  L 60.51 120.04
  A 0.46 0.46 0.0 0 0 60.05 120.50
  L 60.05 129.19
  A 0.79 0.78 -0.0 0 0 60.84 129.97
  L 69.38 129.97
  A 0.62 0.62 0.0 0 1 70.00 130.59
  L 70.00 139.33
  A 0.67 0.67 0.0 0 0 70.67 140.00
  L 79.19 140.00
  A 0.82 0.82 0.0 0 1 80.01 140.82
  L 80.01 149.25
  A 0.72 0.72 0.0 0 0 80.73 149.97
  L 129.35 149.97
  A 0.68 0.67 90.0 0 0 130.02 149.29
  L 130.02 140.54
  A 0.53 0.52 0.0 0 1 130.55 140.02
  L 139.43 140.02
  A 0.58 0.58 0.0 0 0 140.01 139.44
  L 140.06 129.95
  Z"
/>
<rect fill="#000000" x="-10.00" y="-10.00" transform="translate(80.01,80.02) rotate(0.1)" width="20.00" height="20.00" rx="0.76"/>
<rect fill="#000000" x="120.00" y="70.02" width="20.00" height="20.00" rx="0.87"/>
<path fill="#000000" d="
  M 140.06 129.95
  L 140.01 139.44
  A 0.58 0.58 0.0 0 1 139.43 140.02
  L 130.55 140.02
  A 0.53 0.52 0.0 0 0 130.02 140.54
  L 130.02 149.29
  A 0.68 0.67 -90.0 0 1 129.35 149.97
  L 80.73 149.97
  A 0.72 0.72 0.0 0 1 80.01 149.25
  L 80.01 140.82
  A 0.82 0.82 0.0 0 0 79.19 140.00
  L 70.67 140.00
  A 0.67 0.67 0.0 0 1 70.00 139.33
  L 70.00 130.59
  A 0.62 0.62 0.0 0 0 69.38 129.97
  L 60.84 129.97
  A 0.79 0.78 -0.0 0 1 60.05 129.19
  L 60.05 120.50
  A 0.46 0.46 0.0 0 1 60.51 120.04
  L 69.54 120.04
  A 0.47 0.46 -90.0 0 1 70.00 120.51
  L 70.00 129.19
  A 0.83 0.82 0.0 0 0 70.83 130.01
  L 79.33 130.01
  A 0.70 0.70 0.0 0 1 80.03 130.71
  L 80.03 139.06
  A 0.95 0.94 0.0 0 0 80.98 140.00
  L 129.50 140.00
  A 0.50 0.50 0.0 0 0 130.00 139.50
  L 130.00 130.62
  A 0.64 0.64 0.0 0 1 130.63 129.98
  L 140.06 129.95
  Z"
/>
<path fill="#000000" d="
  M 140.06 129.95
  L 140.16 120.62
  A 0.59 0.59 0.0 0 1 140.75 120.03
  L 149.52 120.03
  A 0.48 0.47 90.0 0 1 149.99 120.51
  L 149.99 129.58
  A 0.36 0.36 0.0 0 1 149.63 129.94
  L 140.06 129.95
  Z"
/>
</svg>
