<svg xmlns="http://www.w3.org/2000/svg" width="1024" height="1024" viewBox="0 0 1024 1024">
  <defs>
    <filter id="dropshadow" x="-25%" y="-25%" width="150%" height="150%">
      <feMorphology operator="dilate" radius="10.54" in="SourceAlpha" />
      <feGaussianBlur stdDeviation="25.73" />
      <feOffset dx="23.21" dy="15.66" result="SHADOW" />
      <feFlood flood-color="#090a09" />
      <feComposite operator="in" in2="SHADOW" />
    </filter>
    <rect x="78.02" y="130.72" width="876" height="632" id="shape" transform="matrix(0.8948,0,0,0.9034,17.0388,-11.4798) translate(-9.0221,58.2841)" />
    <linearGradient id="gradient" x2="0%" y2="100%" gradientTransform="translate(0.12,-0.09) translate(0.5,0.5) scale(0.7294 1) rotate(87) scale(1 0.9) translate(-0.5,-0.5)">
      <stop offset="0%" stop-color="#0480e5" stop-opacity="100%" />
      <stop offset="99%" stop-color="#037de1" stop-opacity="100%" />
      <stop offset="100%" stop-color="#037de1" stop-opacity="100%" />
    </linearGradient>
    <rect x="78.02" y="212.91" width="876" height="632" id="shape_2" transform="matrix(0.8948,0,0,0.9034,17.0388,-11.4798) translate(-9.0221,19.0876)" />
    <linearGradient id="gradient_2" x2="0%" y2="100%" gradientTransform="translate(0.2,-0.03) translate(0.5,0.5) scale(0.7294 1) rotate(-35) scale(1 0.67) translate(-0.5,-0.5)">
      <stop offset="0%" stop-color="#ffffff" stop-opacity="100%" />
      <stop offset="100%" stop-color="#abd6fd" stop-opacity="100%" />
    </linearGradient>
    <rect x="174" y="220" width="270" height="705" mask="url(#mask)" id="shape_3" />
    <mask id="mask">
      <rect x="273.37" y="988" width="105" height="379" fill="#ffffff" transform="matrix(1.0544,0,0,0.9737,-13.1299,16.5263) translate(-21.3731,-597)" />
      <ellipse cx="322" cy="932" rx="114" ry="102" fill="#ffffff" transform="matrix(1.1711,0,0,1.0712,-43.516,-25.3549) translate(-21.3731,-597)" />
      <ellipse cx="322" cy="932" rx="114" ry="102" fill="#ffffff" transform="matrix(1.0555,0,0,1.0582,-8.7021,444.3583) translate(-21.3731,-597)" />
      <rect x="294.37" y="807" width="67" height="125" fill="#000000" transform="matrix(0.8887,0,0,0.9737,34.8343,16.5263) translate(-21.3731,-597)" />
      <rect x="294.37" y="807" width="67" height="125" fill="#000000" transform="matrix(0.9851,0,0,0.9737,4.9387,597.8158) translate(-21.3731,-597)" />
    </mask>
    <linearGradient id="gradient_3" x2="100%" y2="0%" gradientTransform="scale(1 0.383) rotate(-90)" transform-origin="0.5 0.5">
      <stop offset="0%" stop-color="#000000" stop-opacity="100%" />
      <stop offset="100%" stop-color="#ffffff" stop-opacity="100%" />
    </linearGradient>
    <linearGradient id="gradient_4" x2="100%" y2="0%" gradientTransform="translate(-0.03,0.07) translate(0.5,0.5) scale(1 0.383) rotate(-90) scale(0.75 1) translate(-0.5,-0.5)">
      <stop offset="0%" stop-color="#f9c300" stop-opacity="100%" />
      <stop offset="100%" stop-color="#ffdb00" stop-opacity="100%" />
    </linearGradient>
    <linearGradient id="gradient_5" x2="100%" y2="0%" gradientTransform="translate(-0.02,-0.05) translate(0.5,0.5) scale(1 0.383) rotate(-141) scale(1.27 1) translate(-0.5,-0.5)">
      <stop offset="0%" stop-color="#ad8103" stop-opacity="100%" />
      <stop offset="99%" stop-color="#f1b900" stop-opacity="100%" />
      <stop offset="100%" stop-color="#f1b900" stop-opacity="100%" />
    </linearGradient>
    <path d="M 636.67,407.26 C 637.13,407.31 637.6,407.36 638.06,407.41 691.35,411.97 706.59,450.11 701.26,496.01 688.61,622.75 667.74,726.36 699.99,840.2 705.94,860.07 704.2,877.34 690.6,889.06 677.6,900.83 652.73,907.05 626.49,905.9 626.01,905.88 625.53,905.86 625.05,905.83 598.71,904.77 576.63,896.3 565.79,883.96 554.44,871.55 554.33,855.28 559.8,836.92 590.33,731 566.4,624.92 551.43,490.13 548.81,466.57 554.86,441.81 570.63,426.54 585.97,410.81 611.02,404.57 636.67,407.26 Z" id="shape_4" />
    <linearGradient id="gradient_6" x2="100%" y2="0%" gradientTransform="scale(1 0.3182) rotate(-90)" transform-origin="0.5 0.5">
      <stop offset="0%" stop-color="#000000" stop-opacity="100%" />
      <stop offset="100%" stop-color="#ffffff" stop-opacity="100%" />
    </linearGradient>
    <linearGradient id="gradient_7" x2="100%" y2="0%" gradientTransform="translate(-0.03,0.07) translate(0.5,0.5) scale(1 0.3182) rotate(-90) scale(0.75 1) translate(-0.5,-0.5)">
      <stop offset="0%" stop-color="#ff3100" stop-opacity="100%" />
      <stop offset="0%" stop-color="#ff3100" stop-opacity="100%" />
      <stop offset="100%" stop-color="#f54700" stop-opacity="100%" />
    </linearGradient>
    <radialGradient id="gradient_8" x2="100%" y2="0%" gradientTransform="translate(-0.28,-0.31) translate(0.5,0.5) scale(1 0.3182) rotate(-90) scale(0.54 1) translate(-0.5,-0.5)">
      <stop offset="0%" stop-color="#fb851b" stop-opacity="100%" />
      <stop offset="9%" stop-color="#fb851b" stop-opacity="100%" />
      <stop offset="16%" stop-color="#fb851b" stop-opacity="93%" />
      <stop offset="100%" stop-color="#fb851b" stop-opacity="0%" />
    </radialGradient>
    <linearGradient id="gradient_9" x2="100%" y2="0%" gradientTransform="translate(-0.02,-0.05) translate(0.5,0.5) scale(1 0.3182) rotate(-72) scale(1.27 1) translate(-0.5,-0.5)">
      <stop offset="0%" stop-color="#c51f00" stop-opacity="100%" />
      <stop offset="100%" stop-color="#c34f45" stop-opacity="100%" />
    </linearGradient>
    <rect x="415" y="270" width="456" height="276" mask="url(#mask_2)" id="shape_5" />
    <mask id="mask_2">
      <rect x="484" y="359" width="47" height="95" fill="#ffffff" transform="matrix(2.8369,0,0,1.3727,-844.2178,-203.2824) translate(-12,4)" />
      <path d="M 631.45,272.34 C 668.95,271.87 703.99,274.58 730.48,281.25 756.8,287.55 774.58,297.8 773.41,303.7 770.23,314.12 705.96,315.75 631.41,317.7 555.99,317.8 494.77,307.7 494.78,295.49 494.74,283.29 556.08,273.14 631.45,272.34 Z" fill="#ffffff" />
      <ellipse cx="704" cy="408" rx="113" ry="113" fill="#ffffff" transform="matrix(1.1799,0,0,1.134,-118.7845,-62.1885) translate(-12,4)" />
      <ellipse cx="583" cy="352" rx="44" ry="44" fill="#000000" transform="matrix(1.3713,0,0,1.3179,-251.7842,-53.9678) translate(-12,4)" />
      <rect x="325" y="373" width="89" height="39" fill="#000000" transform="matrix(1.3713,0,0,1.3179,-13.1864,-138.3118) translate(-12,4)" />
      <ellipse cx="582" cy="353" rx="44" ry="44" fill="#000000" transform="matrix(0,-1.3201,-1.515,0,1278.1045,1170.3819) translate(-12,4)" />
      <rect x="325" y="373" width="89" height="39" fill="#000000" transform="matrix(0,-1.3201,-1.515,0,1375.0616,940.6863) translate(-12,4)" />
      <rect x="581" y="427" width="265" height="100" fill="#000000" transform="matrix(1.1799,0,0,1.134,-114.0648,-57.6525) translate(-12,4)" />
      <rect x="763" y="409" width="71" height="28" fill="#000000" transform="matrix(1.1799,0,0,1.134,-114.0648,-57.6525) translate(-12,4)" />
      <ellipse cx="642" cy="427" rx="35" ry="2" fill="#ffffff" transform="matrix(1.1799,0,0,3.969,-114.0648,-1279.5415) translate(-12,4)" />
      <ellipse cx="795" cy="412" rx="11.5" ry="11.5" fill="#ffffff" transform="matrix(1.1799,0,0,1.134,-106.9852,-62.1885) translate(-12,4)" />
    </mask>
    <linearGradient id="gradient_10" x2="0%" y2="100%" gradientTransform="translate(-0.02,-0.2) translate(0.5,0.5) scale(0.6053 1) rotate(-23) scale(1 0.41) translate(-0.5,-0.5)">
      <stop offset="0%" stop-color="#cbcfd7" stop-opacity="100%" />
      <stop offset="0%" stop-color="#cbcfd7" stop-opacity="100%" />
      <stop offset="100%" stop-color="#9da5b3" stop-opacity="100%" />
    </linearGradient>
    <linearGradient id="gradient_11" x2="0%" y2="100%" gradientTransform="translate(-0.02,-0.05) translate(0.5,0.5) scale(0.6053 1) rotate(-180) scale(1 0.71) translate(-0.5,-0.5)">
      <stop offset="0%" stop-color="#6f6375" stop-opacity="100%" />
      <stop offset="89%" stop-color="#778399" stop-opacity="100%" />
      <stop offset="100%" stop-color="#778399" stop-opacity="100%" />
    </linearGradient>
    <ellipse cx="489" cy="336" rx="49" ry="64" id="shape_6" transform="matrix(0.9139,0,0,0.9828,48.5867,8.9633) translate(-14,-13)" />
    <linearGradient id="gradient_12" x2="100%" y2="0%" gradientTransform="scale(1 0.7209) rotate(-90)" transform-origin="0.5 0.5">
      <stop offset="0%" stop-color="#000000" stop-opacity="100%" />
      <stop offset="100%" stop-color="#ffffff" stop-opacity="100%" />
    </linearGradient>
    <linearGradient id="gradient_13" x2="100%" y2="0%" gradientTransform="translate(-0.02,-0.2) translate(0.5,0.5) scale(1 0.7209) rotate(67) scale(0.41 1) translate(-0.5,-0.5)">
      <stop offset="0%" stop-color="#cbcfd7" stop-opacity="100%" />
      <stop offset="0%" stop-color="#cbcfd7" stop-opacity="100%" />
      <stop offset="100%" stop-color="#9da5b3" stop-opacity="100%" />
    </linearGradient>
    <linearGradient id="gradient_14" x2="100%" y2="0%" gradientTransform="translate(-0.03,0.05) translate(0.5,0.5) scale(1 0.7209) rotate(-136) scale(0.66 1) translate(-0.5,-0.5)">
      <stop offset="0%" stop-color="#6b7589" stop-opacity="100%" />
      <stop offset="0%" stop-color="#6b7589" stop-opacity="100%" />
      <stop offset="99%" stop-color="#8d99b3" stop-opacity="100%" />
      <stop offset="100%" stop-color="#8d99b3" stop-opacity="100%" />
    </linearGradient>
  </defs>
  <use href="#group" filter="url(#dropshadow)" opacity="0.83" />
  <g id="group">
    <rect x="38.02" y="89.91" width="960" height="797" rx="27.81" ry="55.61" transform="matrix(0.8948,0,0,0.9034,17.0388,-11.4798) translate(-9.0221,19.0876)" fill="#0167cb" />
    <use href="#shape" fill="#ffffff" />
    <use href="#shape" fill="url(#gradient)" />
    <use href="#shape_2" fill="#ffffff" />
    <use href="#shape_2" fill="url(#gradient_2)" />
    <use href="#shape_3" fill="url(#gradient_3)" />
    <use href="#shape_3" fill="url(#gradient_4)" />
    <use href="#shape_3" fill="none" stroke="url(#gradient_5)" stroke-width="21" />
    <use href="#shape_4" fill="url(#gradient_6)" />
    <use href="#shape_4" fill="url(#gradient_7)" />
    <use href="#shape_4" fill="url(#gradient_8)" />
    <use href="#shape_4" fill="none" stroke="url(#gradient_9)" stroke-width="21" />
    <use href="#shape_5" fill="#000000" />
    <use href="#shape_5" fill="url(#gradient_10)" />
    <use href="#shape_5" fill="none" stroke="url(#gradient_11)" stroke-width="21" />
    <use href="#shape_6" fill="url(#gradient_12)" />
    <use href="#shape_6" fill="url(#gradient_13)" />
    <use href="#shape_6" fill="none" stroke="url(#gradient_14)" stroke-width="21" />
  </g>
</svg>