<svg xmlns="http://www.w3.org/2000/svg" width="1024" height="1024" viewBox="0 0 1024 1024">
  <defs>
    <rect x="-1" y="-1" width="1025" height="1024" rx="125" ry="125" id="shape" />
    <radialGradient id="gradient" x2="0%" y2="100%" gradientTransform="translate(0.25,0.26) translate(0.5,0.5) scale(0.999 1) rotate(2) scale(1 0.87) translate(-0.5,-0.5)">
      <stop offset="0%" stop-color="#0059f5" stop-opacity="100%" />
      <stop offset="0%" stop-color="#0059f5" stop-opacity="100%" />
      <stop offset="100%" stop-color="#0945ab" stop-opacity="0%" />
    </radialGradient>
    <radialGradient id="gradient_2" x2="0%" y2="100%" gradientTransform="translate(-0.37,-0.35) translate(0.5,0.5) scale(0.999 1) rotate(2) scale(1 1.11) translate(-0.5,-0.5)">
      <stop offset="0%" stop-color="#ffffff" stop-opacity="100%" />
      <stop offset="100%" stop-color="#ffffff" stop-opacity="0%" />
    </radialGradient>
    <filter id="innershadow">
      <feMorphology operator="erode" radius="24.57" in="SourceAlpha" />
      <feGaussianBlur stdDeviation="46.22" />
      <feOffset dx="-56.01" dy="-69.17" result="SHADOW" />
      <feFlood flood-color="#0035c1" />
      <feComposite operator="out" in2="SHADOW" />
      <feComposite operator="in" in2="SourceAlpha" />
    </filter>
    <filter id="innerglow">
      <feMorphology operator="erode" radius="55.5" in="SourceAlpha" />
      <feGaussianBlur stdDeviation="37.35" result="GLOW" />
      <feFlood flood-color="#1955f3" />
      <feComposite operator="out" in2="GLOW" />
      <feComposite operator="in" in2="SourceAlpha" />
    </filter>
  </defs>
  <use href="#shape" fill="#316ff9" />
  <use href="#shape" fill="url(#gradient)" />
  <use href="#shape" fill="url(#gradient_2)" opacity="0.61" />
  <use href="#shape" filter="url(#innershadow)" />
  <use href="#shape" filter="url(#innerglow)" />
  <rect x="195" y="445" width="563" height="127" fill="#ffffff" />
  <path d="M 511.5,181.11 C 511.5,181.11 838.89,508.5 838.89,508.5 838.89,508.5 749.09,598.3 749.09,598.3 749.09,598.3 421.7,270.91 421.7,270.91 421.7,270.91 511.5,181.11 511.5,181.11 Z" fill="#ffffff" />
  <path d="M 511.77,836.02 C 511.77,836.02 839.02,508.77 839.02,508.77 839.02,508.77 749.25,419.01 749.25,419.01 749.25,419.01 422.01,746.25 422.01,746.25 422.01,746.25 511.77,836.02 511.77,836.02 Z" fill="#ffffff" />
  <rect x="-1" y="-1" width="1025" height="1024" rx="125" ry="125" fill="none" stroke-width="34.7" stroke="#ffffff" />
</svg>